<?xml version="1.0" encoding="UTF-8" standalone="no"?>
<svg
   xmlns:dc="http://purl.org/dc/elements/1.1/"
   xmlns:cc="http://creativecommons.org/ns#"
   xmlns:rdf="http://www.w3.org/1999/02/22-rdf-syntax-ns#"
   xmlns:svg="http://www.w3.org/2000/svg"
   xmlns="http://www.w3.org/2000/svg"
   xmlns:sodipodi="http://sodipodi.sourceforge.net/DTD/sodipodi-0.dtd"
   xmlns:inkscape="http://www.inkscape.org/namespaces/inkscape"
   width="210mm"
   height="297mm"
   viewBox="0 0 210 297"
   version="1.1"
   id="svg8"
   sodipodi:docname="Logo.svg"
   inkscape:version="1.0.1 (3bc2e813f5, 2020-09-07)">
  <defs
     id="defs2">
    <inkscape:path-effect
       effect="skeletal"
       id="path-effect1938"
       is_visible="true"
       lpeversion="1"
       pattern="M 0,5 C 0,2.24 2.24,0 5,0 7.76,0 10,2.24 10,5 10,7.76 7.76,10 5,10 2.24,10 0,7.76 0,5 Z"
       copytype="single_stretched"
       prop_scale="1"
       scale_y_rel="false"
       spacing="0"
       normal_offset="0"
       tang_offset="0"
       prop_units="false"
       vertical_pattern="false"
       hide_knot="false"
       fuse_tolerance="0" />
    <inkscape:path-effect
       effect="skeletal"
       id="path-effect884"
       is_visible="true"
       lpeversion="1"
       pattern="M 0,5 C 0,2.24 2.24,0 5,0 7.76,0 10,2.24 10,5 10,7.76 7.76,10 5,10 2.24,10 0,7.76 0,5 Z"
       copytype="single_stretched"
       prop_scale="1"
       scale_y_rel="false"
       spacing="0"
       normal_offset="0"
       tang_offset="0"
       prop_units="false"
       vertical_pattern="false"
       hide_knot="false"
       fuse_tolerance="0" />
    <inkscape:path-effect
       effect="skeletal"
       id="path-effect297"
       is_visible="true"
       lpeversion="1"
       pattern="M 0,5 C 0,2.24 2.24,0 5,0 7.76,0 10,2.24 10,5 10,7.76 7.76,10 5,10 2.24,10 0,7.76 0,5 Z"
       copytype="single_stretched"
       prop_scale="1"
       scale_y_rel="false"
       spacing="0"
       normal_offset="0"
       tang_offset="0"
       prop_units="false"
       vertical_pattern="false"
       hide_knot="false"
       fuse_tolerance="0" />
    <inkscape:path-effect
       effect="skeletal"
       id="path-effect179"
       is_visible="true"
       lpeversion="1"
       pattern="M 0,5 C 0,2.24 2.24,0 5,0 7.76,0 10,2.24 10,5 10,7.76 7.76,10 5,10 2.24,10 0,7.76 0,5 Z"
       copytype="single_stretched"
       prop_scale="1"
       scale_y_rel="false"
       spacing="0"
       normal_offset="0"
       tang_offset="0"
       prop_units="false"
       vertical_pattern="false"
       hide_knot="false"
       fuse_tolerance="0" />
    <inkscape:path-effect
       effect="skeletal"
       id="path-effect175"
       is_visible="true"
       lpeversion="1"
       pattern="M 0,5 C 0,2.24 2.24,0 5,0 7.76,0 10,2.24 10,5 10,7.76 7.76,10 5,10 2.24,10 0,7.76 0,5 Z"
       copytype="single_stretched"
       prop_scale="1"
       scale_y_rel="false"
       spacing="0"
       normal_offset="0"
       tang_offset="0"
       prop_units="false"
       vertical_pattern="false"
       hide_knot="false"
       fuse_tolerance="0" />
    <inkscape:path-effect
       effect="skeletal"
       id="path-effect171"
       is_visible="true"
       lpeversion="1"
       pattern="M 0,5 C 0,2.24 2.24,0 5,0 7.76,0 10,2.24 10,5 10,7.76 7.76,10 5,10 2.24,10 0,7.76 0,5 Z"
       copytype="single_stretched"
       prop_scale="1"
       scale_y_rel="false"
       spacing="0"
       normal_offset="0"
       tang_offset="0"
       prop_units="false"
       vertical_pattern="false"
       hide_knot="false"
       fuse_tolerance="0" />
    <inkscape:path-effect
       effect="skeletal"
       id="path-effect76"
       is_visible="true"
       lpeversion="1"
       pattern="M 0,5 C 0,2.24 2.24,0 5,0 7.76,0 10,2.24 10,5 10,7.76 7.76,10 5,10 2.24,10 0,7.76 0,5 Z"
       copytype="single_stretched"
       prop_scale="1"
       scale_y_rel="false"
       spacing="0"
       normal_offset="0"
       tang_offset="0"
       prop_units="false"
       vertical_pattern="false"
       hide_knot="false"
       fuse_tolerance="0" />
    <inkscape:path-effect
       effect="skeletal"
       id="path-effect72"
       is_visible="true"
       lpeversion="1"
       pattern="M 0,5 C 0,2.24 2.24,0 5,0 7.76,0 10,2.24 10,5 10,7.76 7.76,10 5,10 2.24,10 0,7.76 0,5 Z"
       copytype="single_stretched"
       prop_scale="1"
       scale_y_rel="false"
       spacing="0"
       normal_offset="0"
       tang_offset="0"
       prop_units="false"
       vertical_pattern="false"
       hide_knot="false"
       fuse_tolerance="0" />
    <inkscape:path-effect
       effect="powerstroke"
       id="path-effect68"
       is_visible="true"
       lpeversion="1"
       offset_points="0,0.1322915"
       sort_points="true"
       interpolator_type="CubicBezierJohan"
       interpolator_beta="0.2"
       start_linecap_type="zerowidth"
       linejoin_type="extrp_arc"
       miter_limit="4"
       scale_width="1"
       end_linecap_type="zerowidth" />
  </defs>
  <sodipodi:namedview
     id="base"
     pagecolor="#ffffff"
     bordercolor="#666666"
     borderopacity="1.0"
     inkscape:pageopacity="0.0"
     inkscape:pageshadow="2"
     inkscape:zoom="0.96033951"
     inkscape:cx="325.98861"
     inkscape:cy="702.82538"
     inkscape:document-units="mm"
     inkscape:current-layer="svg8"
     inkscape:document-rotation="0"
     showgrid="false"
     inkscape:window-width="1267"
     inkscape:window-height="729"
     inkscape:window-x="83"
     inkscape:window-y="0"
     inkscape:window-maximized="0" />
  <metadata
     id="metadata5">
    <rdf:RDF>
      <cc:Work
         rdf:about="">
        <dc:format>image/svg+xml</dc:format>
        <dc:type
           rdf:resource="http://purl.org/dc/dcmitype/StillImage" />
      </cc:Work>
    </rdf:RDF>
  </metadata>
  <g
     inkscape:label="Layer 1"
     inkscape:groupmode="layer"
     id="layer1">
    <path
       id="path38"
       style="fill:#483737;stroke:#000000;stroke-width:0.999999"
       transform="scale(0.26458333)"
       d="m 346.25,536.08594 c -6.09551,-1.2e-4 -12.19079,0.24234 -18.28516,0.83594 -10.839,0.86662 -21.89562,1.54338 -32.16406,5.42968 -11.43815,4.53147 -21.89235,11.31487 -32.33008,17.76172 -12.02807,7.74603 -24.20296,15.26067 -36.32422,22.85938 -13.2575,8.28684 -26.30943,16.90692 -39.08984,25.91406 l 11.57031,-4.52734 c 12.69221,-9.04181 25.7235,-17.61354 38.9668,-25.82422 12.13222,-7.62826 24.3503,-15.12191 36.38477,-22.9043 0.59283,-0.25586 1.62858,-0.87868 2.73828,-1.57813 0.72556,-0.413 1.54014,-0.87982 1.99023,-1.11328 3.17065,-1.64451 3.15994,-1.56816 6.3457,-2.91015 10.17977,-4.08439 21.20583,-4.87958 32.02149,-5.79492 12.13368,-1.16622 24.2738,-1.07044 36.41992,-0.32032 7.95324,0.43639 15.32265,3.05289 22.41992,6.48047 9.03548,4.31437 17.5274,9.65223 25.95117,15.03711 7.3157,4.87877 15.06623,9.0564 22.49024,13.75586 4.57296,2.88677 9.256,5.60416 13.95898,8.27148 3.01421,1.94948 6.19098,3.63186 9.19336,5.59571 l 10.47852,-6.70899 c -2.99327,-2.03731 -6.24557,-3.65959 -9.25781,-5.67578 -4.7305,-2.56751 -9.33572,-5.40696 -13.94141,-8.19531 -7.41422,-4.72328 -15.21411,-8.83501 -22.52734,-13.72852 -8.45065,-5.40858 -16.9558,-10.79024 -25.99805,-15.16992 -7.16583,-3.58273 -14.64593,-6.32463 -22.7207,-6.86719 -6.09861,-0.38073 -12.19551,-0.62293 -18.29102,-0.62304 z" />
    <path
       id="path40"
       style="fill:#483737;stroke:#000000;stroke-width:0.999999"
       transform="scale(0.26458333)"
       d="m 464.72266,596.83789 -11.4668,4.85547 c -1.062,1.26641 -2.36253,2.41304 -3.49024,3.33789 -1.92773,0.90959 -3.90379,1.70699 -6.04492,2.16016 -2.27013,0.91256 -4.73092,1.58448 -6.8789,2.77148 -2.77828,1.53531 -4.75018,2.65153 -6.68555,3.74805 -0.31805,0.17529 -0.3944,0.21504 -0.5918,0.32226 -4.28965,2.4881 -8.90982,4.43485 -13.61133,6.00196 -6.03003,1.99869 -12.29202,2.83093 -18.51562,4.02148 -6.61924,1.35266 -13.31688,2.33099 -19.99414,3.35547 -4.64484,0.16252 -9.29337,0.49055 -13.83398,1.55078 -5.87299,1.35972 -11.71585,2.99454 -17.7793,3.23242 -6.42271,0.71543 -12.74762,1.93621 -19.13281,2.88281 -6.95609,0.83146 -13.91669,0.75383 -20.91797,0.64649 -9.06672,-0.0835 -18.14523,-0.20643 -27.17774,-1.07617 -9.54078,-0.94156 -19.03714,-2.23429 -28.45508,-4.04102 -8.07857,-1.45527 -15.74174,-4.18163 -23.04687,-7.94922 -9.7339,-4.64587 -19.37568,-9.50125 -28.76367,-14.8164 l -10.48438,6.71093 c 9.46682,5.30219 19.16029,10.19068 28.92383,14.91993 7.36654,3.79861 15.08182,6.63185 23.20508,8.23437 9.45055,1.81278 18.98146,3.11763 28.55078,4.10352 9.04294,0.92591 18.13708,1.07259 27.21875,1.18359 7.01143,0.0661 14.00758,0.24341 20.98633,-0.50781 6.40003,-0.83989 12.72262,-2.11696 19.13672,-2.87891 6.07249,-0.30198 11.96571,-1.72702 17.85547,-3.11328 4.48584,-1.10018 9.07928,-1.52006 13.67968,-1.73047 6.75026,-0.80065 13.47179,-1.95304 20.14844,-3.22851 6.22341,-1.20802 12.48301,-2.08853 18.57031,-3.89454 4.76939,-1.46712 9.36506,-3.47101 13.76953,-5.80468 0.81385,-0.4455 1.63656,-0.87442 2.44141,-1.33594 3.91722,-2.24621 4.98881,-2.86849 7.29492,-4.19531 -0.85817,0.50584 -1.99239,1.15999 -2.46289,1.45312 -0.72597,0.4523 1.52443,-0.775 2.30664,-1.12109 0.35792,-0.15836 4.09706,-1.61553 4.47071,-1.76172 4.15861,-1.15975 7.96505,-2.97854 11.80664,-4.89453 5.82236,-2.95665 2.56331,-1.25075 14.0039,-8.1875 1.04134,-0.63137 2.04457,-1.37691 2.85547,-2.29492 0.74937,-0.84836 1.36689,-1.80583 2.10938,-2.66016 z" />
    <path
       id="path42"
       style="fill:#483737;stroke:#000000;stroke-width:0.999999"
       transform="scale(0.26458333)"
       d="m 463.71875,588.04297 -3.98437,2.03125 c -0.0186,-0.0159 -0.01,-0.009 -0.0293,-0.0254 l -0.35742,0.2207 -6.72461,3.42774 c 4.1e-4,0.24475 -6.9e-4,0.48962 0,0.73437 l -3.51367,2.17578 c 1.32495,1.2881 0.60785,0.74853 2.125,1.64258 9.17982,2.76683 11.76391,-1.07747 12.35937,-5.80469 0.16575,-0.13303 0.17795,-0.24551 0.0391,-0.36328 0.13877,-1.33163 0.14006,-2.71658 0.0859,-4.03906 z" />
    <path
       id="path44"
       style="fill:#483737;stroke:#000000;stroke-width:0.999999"
       transform="scale(0.26458333)"
       d="m 172.73242,456.85547 -10.61914,6.48437 c 1.38451,1.40667 2.6423,2.89363 3.84961,4.45704 2.74361,2.96101 4.79103,6.39647 7.08789,9.69921 2.40335,3.26419 5.2187,6.17812 7.7793,9.31055 4.0734,4.81467 7.59176,10.05694 10.33008,15.75 2.27625,5.55685 3.71392,11.3156 4.75976,17.22852 0.80901,7.6202 0.57663,15.25965 0.58594,22.91406 0.008,7.15646 0.0126,14.31233 0.002,21.46875 -0.0352,5.66271 -0.0379,11.34343 -0.66406,16.97851 -0.71735,4.84933 -2.01659,9.50238 -3.77344,14.08204 -2.04988,4.94014 -4.54346,9.70835 -7.50195,14.16796 l 11.38867,-5.04687 c 2.95599,-4.49038 5.43388,-9.32842 7.39258,-14.33399 1.76124,-4.67279 2.98009,-9.40969 3.64648,-14.35546 0.53767,-5.68989 0.55703,-11.4144 0.58008,-17.125 0.004,-7.15367 -0.0276,-14.30732 -0.0351,-21.46094 0.0144,-7.7012 0.21075,-15.37742 -0.62305,-23.04102 -1.09857,-6.02524 -2.58329,-11.88088 -4.92969,-17.53906 -2.80809,-5.8012 -6.3948,-11.13992 -10.50586,-16.08789 -2.52035,-3.1324 -5.32629,-6.02129 -7.72851,-9.25195 -2.3261,-3.33358 -4.40479,-6.8028 -7.15235,-9.81641 -1.2244,-1.56049 -2.49718,-3.0513 -3.86914,-4.48242 z" />
    <path
       id="path46"
       style="fill:#483737;stroke:#000000;stroke-width:0.999999"
       transform="scale(0.26458333)"
       d="m 493.75977,445.72266 -11.54883,4.57031 c -0.75647,0.56655 -1.51306,1.1327 -2.26953,1.69922 -4.53177,3.90595 -9.02913,7.8405 -13.68555,11.59765 -4.39907,4.00676 -9.23736,8.01123 -11.27539,13.78907 -1.94582,5.47487 -2.73409,11.05748 -2.35156,16.87304 -0.008,6.5359 -0.0115,13.07168 0.043,19.60743 0.0907,7.1245 0.33289,14.24854 0.82812,21.35742 0.62049,7.95443 1.59924,15.8913 1.23047,23.88867 -0.004,7.59031 0.0239,15.18121 -0.0215,22.77148 l 11.08594,-5.65039 h 0.002 c -0.0427,-7.58298 -0.0177,-15.16499 -0.0215,-22.74804 0.3549,-8.02591 -0.65938,-15.98969 -1.2793,-23.97266 -0.49787,-7.08779 -0.68238,-14.19198 -0.77343,-21.29492 -0.0563,-6.53095 -0.037,-13.0607 -0.0332,-19.5918 -0.36321,-5.70263 0.42512,-11.18566 2.56055,-16.47852 2.21405,-5.50539 7.14463,-9.39868 11.49219,-13.23437 4.77093,-3.62011 9.11626,-7.7416 13.71093,-11.57227 0.76869,-0.53722 1.53797,-1.07414 2.30665,-1.61132 z" />
    <path
       style="fill:#483737;stroke:#000000;stroke-width:0.264583"
       id="path48"
       d="m 43.870435,125.9035 c -2.968868,1.54008 -5.992733,2.96434 -9.111184,4.1741 -1.681826,0.65557 -3.431323,1.05793 -5.227052,1.19898 -1.039599,0.11261 -1.997311,-0.15991 -2.88466,-0.68499 -1.053333,-0.82399 -1.98083,-1.83421 -2.708701,-2.95599 -0.94069,-1.69553 -1.609919,-3.5324 -2.147847,-5.39065 -0.631012,-2.23213 -0.857562,-4.54045 -0.98474,-6.84735 0.0047,-1.45629 -0.254244,-2.98633 0.162781,-4.41453 0.100733,-0.34498 0.262419,-0.66916 0.39363,-1.00374 1.863692,-3.43945 4.636748,-6.2443 7.325085,-9.04383 1.583168,-1.622507 3.202257,-3.237158 5.12074,-4.465013 0.374182,-0.239482 1.533911,-0.897101 1.147559,-0.677785 -0.585206,0.332197 -1.162791,0.677645 -1.744189,1.016468 1.702427,-0.894347 3.510634,-1.534853 5.39869,-1.884431 1.721131,-0.253741 3.463182,-0.282869 5.199444,-0.298736 1.631386,-0.111847 3.155206,0.440867 4.655807,1.004869 1.465021,0.548322 2.715754,1.47633 4.01598,2.318697 0.975728,0.631013 1.675633,1.56628 2.556534,2.309071 0.945047,0.73798 1.878476,1.48932 2.830814,2.21752 0.959961,0.60215 1.96341,1.12899 2.949287,1.68765 0.610531,0.40663 0.306324,0.20599 0.912548,0.602 0,0 2.770068,-1.77861 2.770068,-1.77861 v 0 c -0.611108,-0.39333 -0.302358,-0.18755 -0.925399,-0.61863 -0.978638,-0.54449 -1.952992,-1.09323 -2.924119,-1.65062 -0.956228,-0.71556 -1.876324,-1.476352 -2.822721,-2.205591 -0.90597,-0.735343 -1.597181,-1.696379 -2.58147,-2.34025 -1.324491,-0.842756 -2.576793,-1.805057 -4.056756,-2.372757 -1.514067,-0.588351 -3.070693,-1.19457 -4.724043,-1.106702 -1.747247,0.0122 -3.498784,0.03458 -5.23454,0.257842 -1.914403,0.309991 -3.73884,0.928563 -5.47479,1.799484 -1.669301,0.962171 -3.386394,1.849464 -4.989121,2.918857 -1.893382,1.263327 -3.496963,2.893667 -5.078216,4.516337 -2.695111,2.83166 -5.50427,5.66114 -7.297956,9.17733 -0.123831,0.35359 -0.276593,0.69835 -0.371495,1.06078 -0.381781,1.45802 -0.134194,2.99892 -0.125888,4.47899 0.138673,2.32915 0.38052,4.65807 1.021498,6.91089 0.544735,1.88999 1.232897,3.75421 2.184808,5.48008 0.750432,1.16461 1.708324,2.20396 2.779892,3.08083 0.895636,0.59116 1.91764,0.94033 3.003784,0.85433 1.820307,-0.10986 3.59822,-0.47862 5.305325,-1.13581 3.118982,-1.18987 6.141262,-2.6016 9.107987,-4.13123 0,0 2.572626,-2.05786 2.572626,-2.05786 z" />
    <path
       style="fill:#483737;stroke:#000000;stroke-width:0.264583"
       id="path50"
       d="m 64.510083,106.30013 c 0.753216,-1.73187 1.740003,-3.33556 2.620021,-5.00097 0.858276,-1.465371 1.953622,-2.739533 3.073826,-4.002091 0.218752,-0.206819 0.693732,-0.665241 0.9335,-0.855511 0.152823,-0.121275 0.649211,-0.431644 0.478904,-0.336471 -4.293463,2.399345 -2.36831,1.28719 -1.11124,0.976837 1.471917,-0.242422 2.968911,-0.248193 4.456676,-0.256228 1.198084,0.03845 2.342229,0.373205 3.490069,0.68063 1.0336,0.322762 2.058048,0.650285 3.031487,1.128178 0.879663,0.368517 1.719448,0.78822 2.520357,1.305147 0,0 2.771622,-1.781524 2.771622,-1.781524 v 0 c -0.812483,-0.518068 -1.6348,-0.989243 -2.540511,-1.33205 -0.982056,-0.511641 -2.022612,-0.838994 -3.071632,-1.184876 -1.171237,-0.303371 -2.323889,-0.672251 -3.541723,-0.749509 -1.50081,0.004 -3.00677,0.01124 -4.497946,0.201658 -2.301401,0.425685 -4.342276,1.80949 -5.948804,3.479125 -1.131859,1.267407 -2.189893,2.592625 -3.038917,4.071875 -0.897221,1.66523 -1.856634,3.29481 -2.617735,5.03071 0,0 2.992046,-1.37493 2.992046,-1.37493 z" />
    <path
       id="path52"
       style="fill:#483737;stroke:#000000;stroke-width:0.999999"
       transform="scale(0.26458333)"
       d="m 344.44141,348.91211 c -3.55687,4.45054 -7.1203,8.89506 -10.77539,13.26367 -5.85982,6.58426 -11.81809,13.07603 -17.42774,19.87695 l 11.45313,-4.86523 c 5.57501,-6.78803 11.52925,-13.24442 17.36523,-19.80859 1.63394,-2.02527 3.27249,-4.04758 4.91016,-6.07032 -2.22423,-0.52935 -4.06632,-1.36053 -5.52539,-2.39648 z" />
    <path
       id="path62"
       style="fill:#483737;stroke:#000000;stroke-width:0.999999"
       transform="scale(0.26458333)"
       d="m 193.74219,601.69531 -10.62305,6.50977 c 2.04934,2.31723 4.09481,4.63807 6.23633,6.87109 l 10.61328,-6.47851 c -2.16269,-2.21957 -4.2143,-4.54698 -6.22656,-6.90235 z" />
    <path
       style="fill:#483737;stroke:#000000;stroke-width:0.264583"
       id="path64"
       d="m 123.79475,154.24419 c 5.3e-4,-0.86225 -0.0137,-1.7253 0.005,-2.58721 -3.59221,1.97957 -2.94133,0.91594 -2.9394,3.78231 -0.01,0.45081 -0.23982,0.79808 -0.44025,1.18265 0,0 3.00102,-1.36066 3.00102,-1.36066 v 0 c 0.19594,-0.42533 0.37975,-0.83474 0.3726,-1.31662 2.6e-4,-0.4906 5.3e-4,-0.98121 0.002,-1.47182 2.7e-4,-0.12681 5.3e-4,-0.25363 10e-4,-0.38044 2.6e-4,-0.0944 0.0903,-0.31523 0.002,-0.2831 -1.01484,0.36746 -1.96255,0.89897 -2.94382,1.34846 0.0185,0.8603 0.004,1.72193 0.005,2.58262 0,0 2.93645,-1.49619 2.93645,-1.49619 z" />
    <path
       id="path163"
       style="fill:#241c1c;stroke:#000000;stroke-width:0.999999"
       transform="scale(0.26458333)"
       d="m 467.37891,379.36523 c 0.0102,-0.0667 -0.0763,0.30435 -0.0977,0.38868 0.011,-0.009 0.0222,-0.0168 0.0332,-0.0254 0.0248,-0.1404 0.0607,-0.33854 0.0645,-0.36329 z" />
    <path
       id="path165"
       style="fill:#241c1c;stroke:#000000;stroke-width:0.999999"
       transform="scale(0.26458333)"
       d="m 346.86133,350.27539 c -0.51849,0.36319 -1.02967,0.73606 -1.55078,1.0957 l 2.15429,-0.83203 c -0.2093,-0.0827 -0.40333,-0.17478 -0.60351,-0.26367 z" />
    <path
       style="fill:#483737;stroke:#000000;stroke-width:0.264583"
       id="path275"
       d="m 126.93948,127.79698 c 1.90499,0.49054 3.86679,0.70082 5.82215,0.86928 1.76254,0.12716 3.53079,0.13432 5.29701,0.14287 1.35339,0.0705 2.65428,-0.2024 3.89304,-0.7278 2.31332,-1.11607 4.37386,-2.55538 6.35942,-4.1487 1.16459,-0.94815 1.81853,-2.11072 2.20861,-3.53631 0.27535,-1.22041 0.28748,-2.47531 0.29404,-3.7199 -0.002,-1.3851 -0.0118,-2.77017 -0.0165,-4.15525 -0.13246,-1.35271 -0.75227,-2.63271 -1.45436,-3.78154 -0.74539,-1.5028 -2.02588,-2.6061 -3.28616,-3.66982 -1.30883,-1.06878 -2.63689,-2.11604 -3.92311,-3.21154 -1.31346,-1.02986 -2.7662,-1.74697 -4.35807,-2.220723 -2.67394,-0.728837 -5.39942,-1.232106 -8.14387,-1.602703 -1.74602,-0.229357 -3.50386,-0.334327 -5.26334,-0.372573 -1.36257,-0.01998 -2.72128,0.05706 -4.07317,-0.138832 -1.23007,-0.193045 -2.46767,-0.359992 -3.71401,-0.31523 -2.22539,0.394954 -4.6288,1.152176 -6.16525,2.911801 -0.38214,0.58047 -0.46983,1.25226 -0.54862,1.92524 0,0 2.95335,-1.45562 2.95335,-1.45562 v 0 c 0.095,-0.626299 0.20101,-1.238121 0.63836,-1.728995 0.97072,-0.829043 0.93371,-0.757555 -2.02583,1.03061 -0.16945,0.102378 0.36097,-0.164541 0.54887,-0.226877 0.6355,-0.210833 1.30683,-0.323858 1.95025,-0.506743 1.22855,-0.107805 2.45536,0.07974 3.67113,0.258852 1.36106,0.225047 2.72383,0.176808 4.10057,0.174115 1.75653,0.02611 3.51228,0.11336 5.25665,0.331816 2.73446,0.352652 5.44812,0.846732 8.11189,1.566082 1.56467,0.42987 2.97431,1.12458 4.27152,2.10936 1.28338,1.10085 2.62169,2.13929 3.93049,3.21052 1.23938,1.03318 2.49648,2.1127 3.22525,3.58276 0.6749,1.09684 1.26847,2.3262 1.36775,3.62427 0.006,1.38396 0.0174,2.76792 0.0142,4.1519 -0.0137,1.21882 -0.0296,2.4496 -0.33298,3.63831 -0.42295,1.36809 -1.14527,2.46206 -2.289,3.34985 -0.99218,0.77598 -5.55842,3.92107 -0.73445,0.88015 -1.18381,0.59427 -2.47718,0.89558 -3.80811,0.84337 -1.762,-0.004 -3.52568,-0.007 -5.2848,-0.11975 -1.93896,-0.15292 -3.88497,-0.34805 -5.77566,-0.82318 0,0 -2.71727,1.86093 -2.71727,1.86093 z" />
    <path
       style="fill:#483737;stroke:#000000;stroke-width:0.264583"
       id="path277"
       d="m 91.813929,92.784471 c 2.194431,-1.167794 4.408205,-2.277422 6.710937,-3.216405 2.028804,-0.791916 4.147374,-1.263795 6.309414,-1.473697 1.25439,-0.148942 2.449,-0.125312 3.57118,0.490501 0.77285,0.666697 1.28654,1.544346 1.6311,2.493012 0.28082,0.952707 0.61436,1.873245 0.77147,2.857979 0.13086,1.041736 0.13268,2.09378 0.13961,3.141983 0.002,0.549214 8e-4,1.098433 -1.2e-4,1.64765 0,0 2.93302,-1.493875 2.93302,-1.493875 v 0 c 7.9e-4,-0.550137 0.002,-1.10028 -10e-4,-1.650415 -0.009,-1.064048 -0.0152,-2.13247 -0.16222,-3.188411 -0.17228,-1.000919 -0.51144,-1.942225 -0.80256,-2.911944 -0.38144,-1.018331 -0.93984,-1.94537 -1.7463,-2.688238 -1.14289,-0.704807 -2.37418,-0.812734 -3.695,-0.652314 -2.18373,0.184004 -4.32535,0.62774 -6.3806,1.407382 -2.305973,0.918988 -4.525393,2.002549 -6.709224,3.181371 0,0 -2.569581,2.055421 -2.569581,2.055421 z" />
  </g>
  <path
     id="path544"
     style="fill:#ff0000;fill-opacity:1;fill-rule:nonzero;stroke:none;stroke-width:3.77953"
     transform="scale(0.26458333)"
     d="m 485.24219,620.23438 c -0.0931,0.0957 -0.18171,0.17727 -0.27735,0.28124 -0.29514,0.32129 -0.53285,0.68506 -0.75586,1.06055 0.30334,-0.22959 0.60741,-0.45933 0.91407,-0.68164 0.0329,-0.21938 0.0704,-0.43944 0.11914,-0.66015 z m 28.16211,17.4121 c -0.5021,0.50325 -1.00302,1.00744 -1.50782,1.50782 -0.007,0.069 -0.025,0.13629 -0.0332,0.20508 0.24383,-0.13625 0.53639,-0.27756 0.8418,-0.42579 0.25281,-0.38476 0.48215,-0.73514 0.77539,-1.17968 -0.0293,-0.0411 -0.0472,-0.0667 -0.0762,-0.10743 z m -349.86524,6.38086 c 0.0204,0.23466 0.0481,0.4831 0.0723,0.72461 0.0485,-0.12422 0.10806,-0.25885 0.15039,-0.3789 -0.0714,-0.113 -0.15173,-0.23301 -0.22266,-0.34571 z m 74.32813,7.50586 c -0.0434,0.028 -0.0823,0.0586 -0.12696,0.0859 0.10676,0.0581 0.20821,0.10048 0.31836,0.16992 -0.0546,-0.0765 -0.13367,-0.17628 -0.1914,-0.25586 z m 3.28711,3.21289 c 0.0621,0.0744 0.12871,0.16213 0.1914,0.23829 0.21731,-8.7e-4 0.43491,-0.002 0.65235,-0.004 -0.0234,-0.0788 -0.0477,-0.15872 -0.0645,-0.23438 -0.17584,0.0151 -0.4881,0.005 -0.77929,0 z m 7.02539,0.60938 c -0.38168,0.0562 -0.6265,0.13068 -0.32617,0.23633 0.17975,0.0633 0.32684,0.0925 0.49609,0.14453 -0.0569,-0.12685 -0.11532,-0.2534 -0.16992,-0.38086 z m -24.28516,4.83008 c 0.0484,0.0488 0.0857,0.0853 0.13477,0.13476 0.0245,-0.0452 0.0515,-0.0896 0.0762,-0.13476 z m 35.33789,5.52734 c -0.004,0.0135 -0.007,0.0254 -0.0117,0.0391 0.1383,-0.0146 0.27764,-0.023 0.41602,-0.0371 -0.13477,-5.3e-4 -0.26953,-6.5e-4 -0.4043,-0.002 z m -0.0195,0.0664 c -0.0828,0.25921 -0.14497,0.42966 -0.25391,0.86132 -0.044,0.17443 0.12788,-0.33571 0.19141,-0.5039 0.0182,-0.11356 0.12846,-0.4017 0.0625,-0.35742 z m 97.87695,6.98828 c -0.0182,6.3e-4 -0.0365,5.5e-4 -0.0547,0.002 0.003,0.005 0.005,0.0105 0.008,0.0156 0.02,-0.007 0.0268,-0.0104 0.0469,-0.0176 z m -103.13476,66.8418 c -0.0129,0.005 -0.0261,0.0102 -0.0391,0.0156 -0.0575,0.0938 -0.0931,0.15334 -0.15235,0.25 0.009,8e-5 0.0166,-8e-5 0.0254,0 0.0566,-0.0915 0.10962,-0.17457 0.16602,-0.26562 z m 110.23633,17.65624 c -0.32715,0.0704 -0.65138,0.15613 -0.97071,0.2754 -0.0465,-0.0598 -0.099,-0.11647 -0.14648,-0.17579 -4.29486,2.09842 -8.59504,4.18705 -12.90039,6.26368 0.0132,0.0337 0.0259,0.053 0.0391,0.0859 0.0527,-0.0267 0.10526,-0.0538 0.1582,-0.0801 2.75808,-1.36918 5.4708,-2.84046 8.29883,-4.0586 1.83312,-0.78958 3.67483,-1.5562 5.52149,-2.31055 z" />
  <path
     style="fill:#999999;stroke:#000000;stroke-width:0.264583px;stroke-linecap:butt;stroke-linejoin:miter;stroke-opacity:1"
     d="m 57.188733,193.82802 71.081627,-30.30612 3.58164,8.54082 -68.602044,29.20409 z"
     id="path347" />
  <path
     style="fill:#999999;stroke:#000000;stroke-width:0.264583"
     id="path858"
     d="m 128.27547,163.2453 c 0.3261,-0.94222 0.71806,-1.86927 1.16111,-2.76303 0.51814,-1.08829 1.21115,-2.07521 1.82078,-3.11021 0.48897,-0.74275 0.9679,-1.49392 1.48023,-2.22105 0.53598,-0.72358 1.11669,-1.41684 1.7736,-2.0334 0.70814,-0.64361 1.5123,-1.17821 2.3391,-1.65647 -0.0926,0.0589 -0.38626,0.19302 -0.27778,0.17659 0.15132,-0.0229 0.27366,-0.13757 0.41456,-0.1973 0.1388,-0.0588 0.28165,-0.1077 0.42373,-0.1581 0.45746,-0.16229 0.92121,-0.29099 1.38971,-0.4167 0.94599,-0.21371 1.88445,-0.45826 2.84448,-0.60116 1.31328,-0.14648 2.61349,-0.3729 3.92855,-0.50891 1.5733,-0.15003 3.15464,-0.1691 4.73374,-0.18498 1.37268,-0.01 2.7454,-0.006 4.1181,-0.005 1.10152,10e-4 2.20304,0.002 3.30456,0.003 1.21027,0.003 2.32386,0.37455 3.4,0.89567 0.83871,0.4316 1.70163,0.8365 2.39021,1.49222 0.51012,0.63435 0.5492,1.44741 0.59285,2.22692 0.037,0.82029 0.0314,1.63659 -0.0721,2.4511 -0.0133,0.98744 -0.35944,1.82914 -0.8412,2.67238 -0.83581,1.23978 -1.84707,2.35175 -2.88956,3.41943 -1.04118,1.00756 -1.96967,2.12498 -2.89723,3.23609 -0.89234,1.12691 -1.85716,2.18768 -2.89444,3.18167 -1.04351,0.91566 -2.13813,1.80336 -3.34241,2.49972 0.0492,-0.0352 0.20373,-0.12816 0.14761,-0.10558 -0.18717,0.0753 -0.35977,0.18312 -0.54411,0.26512 -0.69619,0.30965 -1.4257,0.5229 -2.15402,0.74014 -1.04677,0.32628 -2.1106,0.59276 -3.17402,0.85811 -0.94192,0.25355 -1.9085,0.37507 -2.87915,0.44339 -0.82923,0.048 -1.66034,0.0408 -2.49058,0.0405 -0.83788,0.0446 -1.65921,-0.0629 -2.47506,-0.24161 -0.63822,-0.20819 -1.27446,-0.40792 -1.93834,-0.51392 -0.67605,-0.19797 -1.33393,-0.45104 -2.01049,-0.64752 -0.50376,-0.18142 -1.00823,-0.31006 -1.40198,-0.68562 0,0 -0.7031,0.43256 -0.7031,0.43256 v 0 c 0.40135,0.39208 0.90335,0.53402 1.42439,0.71909 0.68032,0.19336 1.34169,0.44411 2.01619,0.65628 0.66409,0.099 1.3011,0.29229 1.93571,0.50928 0.81906,0.18257 1.64297,0.30403 2.48562,0.25604 0.83128,5.3e-4 1.66336,0.009 2.49378,-0.0358 0.97328,-0.0646 1.94352,-0.17946 2.88835,-0.43211 1.06381,-0.26576 2.1291,-0.52853 3.17631,-0.85522 1.39333,-0.41441 2.75187,-0.87499 3.97185,-1.69895 1.19667,-0.71309 2.29752,-1.59072 3.33495,-2.51756 1.035,-0.99781 1.9958,-2.06375 2.89053,-3.18973 0.92918,-1.10884 1.85811,-2.22402 2.89965,-3.23036 1.04182,-1.07274 2.05648,-2.18854 2.88214,-3.43933 0.47744,-0.85344 0.80982,-1.7097 0.82811,-2.70179 0.10032,-0.81896 0.10269,-1.64031 0.0652,-2.46443 -0.0478,-0.80102 -0.0997,-1.62945 -0.62311,-2.28076 -0.69112,-0.66609 -1.55742,-1.07892 -2.40489,-1.51324 -1.08224,-0.53033 -2.20074,-0.91444 -3.42079,-0.92667 -1.1017,-5.3e-4 -2.20341,-0.001 -3.30512,-0.002 -1.37303,-0.002 -2.74608,-0.005 -4.1191,0.004 -1.58048,0.015 -3.1632,0.0322 -4.73816,0.17883 -1.31587,0.13295 -2.61592,0.35984 -3.92955,0.50529 -0.963,0.13662 -1.90186,0.38277 -2.85042,0.59368 -1.19362,0.31502 -2.34102,0.68228 -3.37369,1.39298 -0.82425,0.48627 -1.62893,1.02187 -2.33222,1.67423 -0.65114,0.62593 -1.23494,1.31897 -1.76715,2.04858 -0.509,0.73063 -0.99406,1.47877 -1.47712,2.22655 -0.61554,1.03312 -1.2999,2.0267 -1.81826,3.11611 -0.43867,0.90011 -0.83757,1.82789 -1.15622,2.777 0,0 0.74565,-0.35415 0.74565,-0.35415 z" />
  <path
     style="fill:none;stroke:#000000;stroke-width:0.264583px;stroke-linecap:butt;stroke-linejoin:miter;stroke-opacity:1"
     d="m 43.269717,170.3989 c 0,0 0,0 0,0 z"
     id="path864" />
  <path
     style="fill:none;stroke:#000000;stroke-width:0.264583px;stroke-linecap:butt;stroke-linejoin:miter;stroke-opacity:1"
     d="M 43.269717,170.3989 123.42857,189 l -3.30612,7.98979"
     id="path872" />
  <path
     style="fill:none;stroke:#000000;stroke-width:0.264583px;stroke-linecap:butt;stroke-linejoin:miter;stroke-opacity:1"
     d="M 120.12245,196.98979 Z"
     id="path874" />
  <path
     style="fill:none;stroke:#000000;stroke-width:0.264583px;stroke-linecap:butt;stroke-linejoin:miter;stroke-opacity:1"
     d="M 120.12245,196.98979 Z"
     id="path876" />
  <path
     style="fill:#999999;stroke:#000000;stroke-width:0.265;stroke-linecap:butt;stroke-linejoin:miter;stroke-opacity:1;image-rendering:auto;fill-opacity:1;opacity:1;fill-rule:evenodd;stroke-miterlimit:4;stroke-dasharray:none;paint-order:normal"
     d="m 120.12245,196.98979 -80.448981,-17.63265 3.615369,-8.76652 v 0 l 0.03979,-0.10026 -0.05892,-0.0915 v 0"
     id="path878" />
  <path
     style="fill:none;stroke:#000000;stroke-width:0.264583px;stroke-linecap:butt;stroke-linejoin:miter;stroke-opacity:1"
     d="M 120.12245,196.98979 Z"
     id="path886" />
  <path
     style="fill:none;stroke:#000000;stroke-width:0.264583px;stroke-linecap:butt;stroke-linejoin:miter;stroke-opacity:1"
     d="M 120.12245,196.98979 Z"
     id="path888" />
  <path
     style="fill:none;stroke:#000000;stroke-width:0.264583px;stroke-linecap:butt;stroke-linejoin:miter;stroke-opacity:1"
     d="m 39.673469,179.35714 c 0,0 0,0 0,0 z"
     id="path890" />
  <path
     style="fill:#999999;fill-opacity:1;stroke:#000000;stroke-width:1.0413"
     d=""
     id="path1743"
     transform="scale(0.26458333)" />
  <path
     id="path1976"
     style="opacity:1;fill:#999999;fill-opacity:1;fill-rule:evenodd;stroke:#000000;stroke-width:1.00157;stroke-linejoin:miter;stroke-miterlimit:4;stroke-dasharray:none;stroke-opacity:1;paint-order:normal"
     transform="scale(0.26458333)"
     d="m 132.2207,612.38281 c -1.6584,-0.0142 -3.32335,0.0543 -4.98437,0.0195 -3.07828,-0.002 -6.15636,-0.016 -9.23438,0.0293 -2.61006,0.0605 -5.22665,0.14651 -7.81054,0.55274 -2.73719,0.47285 -5.46719,0.84264 -8.24414,1.00195 -3.270445,0.3857 -6.532916,0.65039 -9.824223,0.77148 -2.394165,0.26155 -4.682871,0.80354 -6.832031,1.93555 -1.814744,0.65072 -6.923087,2.13241 -4.048828,4.35742 2.664483,1.30409 5.775726,0.93089 8.603515,1.76367 2.798789,0.59131 5.641377,0.93244 8.492188,1.14844 3.176039,0.42172 6.264269,1.10783 9.242189,2.32227 3.01466,1.20567 5.75237,2.76784 8.35937,4.71093 2.63253,1.8618 5.21668,3.78267 7.42188,6.15625 1.59837,1.86021 2.61932,3.91985 2.05664,6.43164 -0.18618,0.72824 -0.25703,1.22703 -0.64258,1.88282 -0.043,0.0731 -0.12843,0.16207 -0.22266,0.25586 0.83519,-0.26766 1.92528,-0.72935 1.56836,-0.46485 -0.57272,0.42441 -1.21158,0.83999 -1.91601,0.94922 -0.22454,0.0348 0.0952,-0.23308 0.34765,-0.48437 -0.62151,0.19917 -1.10557,0.2933 -0.73046,-0.11719 -3.20122,-0.21997 -6.39068,-0.58374 -9.46289,-1.56445 -2.76463,-0.78112 -5.57424,-1.42637 -8.2168,-2.58204 -3.19669,-0.91173 -6.369905,-1.89217 -9.544924,-2.875 -0.468038,-0.13954 -0.941446,-0.2704 -1.412109,-0.40625 0.02749,0.52874 -0.05993,1.26329 -0.285156,1.5586 -0.236121,0.3096 -0.361927,0.48845 -0.525391,0.71289 3.059485,0.94452 6.11741,1.88885 9.19531,2.77344 2.65337,1.12785 5.45097,1.80794 8.21875,2.58203 3.08502,0.98574 6.28289,1.38157 9.49805,1.61719 3.83814,-0.0113 6.11905,-1.53385 6.94336,-5.18555 0.53217,-2.60372 -0.5599,-4.75747 -2.19922,-6.68945 -2.21623,-2.39626 -4.8115,-4.34511 -7.46289,-6.22266 -2.62666,-1.94434 -5.37122,-3.54917 -8.39844,-4.77344 -2.99153,-1.22536 -6.09604,-1.94211 -9.28711,-2.38476 -2.844969,-0.23093 -5.679274,-0.56579 -8.478513,-1.13086 -2.801609,-0.83743 -5.884517,-0.5015 -8.560547,-1.70313 -0.221376,-0.17781 -0.726582,-0.42698 -0.806641,-0.81055 -0.06781,0.0331 -0.137452,0.0578 -0.205078,0.0918 -1.460975,0.5271 -0.992003,0.38744 0.261719,-0.41601 0.232133,-0.33076 1.049634,-0.70352 0.791016,-0.52149 -0.307428,0.21642 -0.54147,0.36156 -0.791016,0.52149 -0.0289,0.0412 -0.05314,0.0824 -0.06055,0.12109 -0.01377,0.0719 -0.0095,0.1391 0.0039,0.20312 2.094138,-1.02114 4.278526,-1.6155 6.585938,-1.90234 3.287663,-0.1629 6.555883,-0.38659 9.826172,-0.76953 2.774041,-0.19313 5.513301,-0.5144 8.251951,-0.98828 2.57309,-0.42512 5.18119,-0.52336 7.78321,-0.58985 3.07704,-0.0537 6.15307,-0.0409 9.23046,-0.0391 3.30445,0.0752 6.63146,-0.25571 9.88868,0.40235 2.65613,0.53102 4.81599,2.09955 6.92968,3.69531 2.4124,1.84237 4.63469,3.91259 6.82618,6.00781 2.42941,2.18283 5.07171,4.10495 7.50976,6.27734 1.99318,1.42545 3.30781,3.46891 4.78125,5.375 1.18331,1.75964 2.51505,3.40146 3.88867,5.01172 0.68553,0.99651 0.37927,0.47969 0.91797,1.54688 l 2.71094,-1.54492 c -0.56511,-1.11228 -0.24749,-0.57529 -0.95703,-1.61133 -1.36811,-1.60838 -2.70503,-3.23654 -3.88086,-4.9961 -1.48519,-1.91962 -2.80373,-3.99058 -4.8125,-5.42578 -2.43008,-2.17674 -5.07103,-4.09359 -7.50391,-6.26758 -2.19856,-2.10444 -4.42791,-4.18497 -6.8457,-6.03906 -2.13995,-1.62066 -4.32041,-3.23992 -7.00586,-3.80859 -1.63215,-0.36208 -3.28301,-0.45847 -4.94141,-0.47266 z m -46.654294,24.78907 c -0.305261,0.25085 -0.603669,0.48204 -0.923828,0.77734 -0.06102,0.0563 -0.102922,0.16946 -0.136719,0.29492 0.139037,0.0129 0.277237,0.0299 0.416016,0.0449 0.235042,-0.39594 0.469721,-0.7908 0.644531,-1.11718 z m 5.935547,0.0312 c -0.372078,0.52287 -0.744249,1.04682 -1.132812,1.57422 1.119576,0.3341 2.167171,0.70122 3.029297,1.22461 0.271127,-0.52412 0.683922,-1.18665 1.246093,-1.98242 -1.041527,-0.29485 -2.087591,-0.57222 -3.142578,-0.81641 z m 3.576172,9.90821 c -0.08082,0.27564 -0.152279,0.54191 -0.253906,0.83789 -0.174671,0.50872 -0.460073,0.89792 -0.814453,1.20117 2.130745,0.37699 4.242238,0.83657 6.277344,1.60938 3.27085,1.21092 6.70404,2.43699 8.83789,5.37304 1.15166,1.7565 2.37712,3.44121 2.73828,5.56836 0.26109,2.15014 0.32344,4.31692 -0.59961,6.33594 -0.33855,0.55766 -0.83572,1.0289 -1.05273,1.27734 0.23818,-0.057 0.489,-0.12839 0.81445,-0.25586 0.3316,-0.13001 1.2719,-0.63895 0.95703,-0.47265 -1.84596,0.97535 -2.04624,1.04307 -1.77148,0.72851 -0.43347,0.1038 -0.8165,0.13946 -1.45703,0.22852 -2.55736,0.24831 -5.13174,-6.6e-4 -7.6836,-0.23828 -3.126971,-0.38238 -6.224507,-0.96801 -9.35156,-1.34766 -4.107855,-0.8945 -8.093306,-2.30106 -11.943359,-3.98242 -1.775365,-0.80137 -2.377504,-1.03335 -4.085938,-1.96289 -1.430464,-0.77832 -2.811578,-1.7891 -4.294922,-2.46484 -0.349719,-0.15912 -0.73009,-0.23522 -1.095703,-0.35352 -2.195475,-0.37342 -0.968833,-0.3509 -4.548828,1.31055 -1.126193,0.5227 -0.909213,1.98722 -0.707031,2.94726 0.864004,2.68059 1.939668,5.34067 3.580078,7.64649 2.044018,2.53886 4.660303,4.38107 7.113281,6.49609 3.059936,2.49207 5.99073,5.14484 9.220703,7.42578 3.009922,2.03195 6.025058,4.09609 9.472657,5.32617 2.547,0.66637 5.079117,1.18363 7.734372,0.96094 3.1215,-0.0189 6.24998,-0.0199 9.36133,-0.29883 3.08368,-0.33638 6.10507,-0.9744 9.1543,-1.52734 3.18252,-0.6449 6.31781,-1.51177 9.43359,-2.42188 3.52095,-0.83021 7.06015,-1.64013 10.38867,-3.0957 3.30458,-1.89471 6.54866,-3.54844 8.41016,-7.01562 l -2.8418,1.28711 c -0.85369,1.51827 -2.07078,2.77754 -3.43359,3.8496 -0.0504,0.0397 -0.16423,0.10167 -0.24219,0.15235 0.17797,-0.0775 0.35857,-0.14898 0.53516,-0.23047 -0.44872,0.27447 -0.83916,0.68967 -1.34766,0.82422 -0.35413,0.0937 0.36753,-0.30449 0.8125,-0.59375 -3.13947,1.36747 -6.48416,2.14227 -9.80469,2.93359 -3.11979,0.89254 -6.24931,1.75959 -9.42578,2.42774 -3.04357,0.55234 -6.06128,1.19751 -9.13672,1.55078 -3.10374,0.30123 -6.22638,0.30652 -9.34179,0.32617 -2.63221,0.20712 -5.155983,-0.24198 -7.687503,-0.89649 -3.434279,-1.17607 -6.433488,-3.2226 -9.417969,-5.23437 -3.224538,-2.27267 -6.15562,-4.90929 -9.203125,-7.40234 -2.429333,-2.10701 -5.042313,-3.92869 -7.078125,-6.44336 -1.618549,-2.27362 -2.679454,-4.90034 -3.523437,-7.54688 -0.05221,-0.29304 -0.106747,-0.6345 -0.125,-0.97461 -1.37292,-0.17518 -1.043097,-0.0374 0.08984,-0.84375 0.07146,-0.19015 0.184122,-0.3639 0.353516,-0.50976 0.155717,-0.13418 0.718664,-0.3785 0.568359,-0.23828 -0.347458,0.32382 -0.649682,0.55431 -0.921875,0.74804 -0.09814,0.26114 -0.105524,0.55159 -0.08984,0.84375 0.04649,0.006 0.04714,0.005 0.09766,0.0117 0.356938,0.10545 0.727781,0.1709 1.070312,0.31641 1.480158,0.62918 2.849818,1.6351 4.257813,2.40234 1.775002,0.96722 2.263051,1.14904 4.105469,1.98828 3.860984,1.69901 7.861313,3.11191 11.978515,4.03907 3.128017,0.41295 6.234316,0.97755 9.365235,1.37304 2.563779,0.26381 5.148239,0.48309 7.722659,0.29102 3.0821,-0.34205 6.34674,-1.80774 7.86328,-4.63086 0.87046,-2.10059 0.79134,-4.30978 0.51172,-6.51563 -0.38651,-2.16914 -1.62807,-3.89804 -2.80664,-5.69336 -2.15918,-2.99693 -5.61627,-4.29319 -8.94532,-5.53711 -2.51539,-0.97159 -5.147589,-1.47524 -7.792965,-1.91015 z" />
  <path
     style="opacity:1;fill:#999999;fill-opacity:1;fill-rule:evenodd;stroke:#000000;stroke-width:0.264999;stroke-linejoin:miter;stroke-miterlimit:4;stroke-dasharray:none;stroke-opacity:1;paint-order:normal"
     id="path1991"
     d="m 24.072611,168.64515 c -0.865835,0.0366 -1.724701,-0.081 -2.584491,-0.16253 -0.858529,-0.0129 -1.685014,-0.22896 -2.52188,-0.39323 -0.546549,-0.10012 -0.898546,-0.38712 -1.212826,0.35377 -0.03209,0.0757 0.159311,0.0405 0.238729,0.0616 0.08931,0.0237 0.178284,0.0487 0.267426,0.0731 0.533018,0.14871 1.008904,0.40722 1.468192,0.70749 0.444376,0.34168 0.910632,0.64849 1.387395,0.94262 0.436612,0.36214 0.90397,0.66463 1.404199,0.92866 0.553116,0.2126 1.057248,0.52491 1.607125,0.74509 0.520461,0.19369 1.034381,0.36411 1.584223,0.45146 0.389225,0.0438 0.195646,0.0157 0.580744,0.0846 0,0 0.676426,-0.47263 0.676426,-0.47263 v 0 c -0.387686,-0.0754 -0.193564,-0.0466 -0.582278,-0.0868 -0.54754,-0.0806 -1.056976,-0.24318 -1.573808,-0.43628 -0.551061,-0.21315 -1.048137,-0.53188 -1.602034,-0.73751 -0.498781,-0.26328 -0.970595,-0.55546 -1.40124,-0.92394 -0.475921,-0.29418 -0.945046,-0.59556 -1.386012,-0.94103 -0.465869,-0.30383 -0.942201,-0.57517 -1.482542,-0.72877 -0.08917,-0.0245 -0.178411,-0.0487 -0.26751,-0.0735 -0.08112,-0.0225 -0.163299,-0.0951 -0.243139,-0.0684 -1.282854,0.42916 -1.060002,0.40104 -0.529617,0.51386 0.129822,0.0276 0.260296,0.0521 0.390444,0.0781 0.838992,0.16282 1.665619,0.38986 2.526403,0.40002 0.861219,0.0806 1.721059,0.20463 2.588244,0.16938 0,0 0.667827,-0.48521 0.667827,-0.48521 z" />
</svg>
