<?xml version="1.0" standalone="no"?>
<!DOCTYPE svg PUBLIC "-//W3C//DTD SVG 20010904//EN"
 "http://www.w3.org/TR/2001/REC-SVG-20010904/DTD/svg10.dtd">
<svg version="1.0" xmlns="http://www.w3.org/2000/svg"
 width="1123.000000pt" height="1123.000000pt" viewBox="0 0 1123.000000 1123.000000"
 preserveAspectRatio="xMidYMid meet">
<metadata>
Created by potrace 1.11, written by Peter Selinger 2001-2013
</metadata>
<g transform="translate(0.000000,1123.000000) scale(0.100000,-0.100000)"
fill="#000000" stroke="none">
<path d="M2285 11209 c3 -4 -15 -5 -39 -3 -39 4 -44 2 -39 -15 3 -10 1 -21 -4
-24 -5 -3 -9 4 -9 16 1 19 -3 21 -34 18 -19 -3 -45 -5 -58 -5 -15 -1 -21 -6
-17 -16 5 -11 3 -12 -5 -4 -8 8 -22 7 -53 -3 -47 -16 -127 -51 -127 -57 0 -1
14 -3 30 -4 17 0 30 3 30 8 0 4 7 11 16 14 8 3 13 2 9 -3 -3 -5 9 -12 26 -16
22 -5 28 -10 19 -15 -7 -5 -19 -6 -26 -3 -6 2 -15 0 -19 -6 -4 -8 -15 -6 -35
4 -25 13 -29 13 -34 0 -3 -8 -12 -15 -21 -15 -8 0 -15 -4 -15 -10 0 -5 4 -10
9 -10 6 0 13 5 16 10 7 12 52 14 58 2 3 -4 -7 -8 -21 -9 -15 -2 -43 -4 -63 -6
-20 -1 -44 -10 -53 -20 -10 -9 -18 -17 -19 -17 -1 0 -17 -4 -35 -9 -46 -14
-33 0 48 48 75 45 97 66 29 29 -103 -56 -190 -119 -201 -144 -8 -18 -8 -28 3
-41 8 -9 9 -14 2 -10 -23 14 -13 -112 14 -173 22 -48 93 -142 93 -123 0 4 7
-3 16 -15 8 -12 20 -20 25 -17 5 4 9 -1 9 -9 0 -9 3 -16 8 -16 4 0 26 -18 49
-41 24 -22 47 -38 53 -34 6 3 7 0 4 -9 -4 -11 0 -16 11 -16 10 0 13 -5 9 -12
-5 -8 -2 -9 10 -5 9 4 15 3 12 -2 -8 -12 64 -72 77 -64 5 3 7 1 3 -5 -8 -13
68 -74 79 -64 5 4 5 2 1 -5 -4 -7 3 -17 16 -24 13 -7 28 -19 34 -27 6 -8 16
-12 23 -8 7 4 10 2 9 -5 -2 -6 3 -14 10 -16 8 -3 10 1 6 11 -7 18 4 20 24 7 8
-5 12 -17 10 -27 -2 -11 2 -24 10 -29 11 -9 9 -11 -6 -12 -17 -1 -19 3 -16 27
3 15 1 31 -4 34 -13 8 -11 -68 2 -76 8 -6 8 -8 0 -8 -6 0 -11 -11 -11 -25 0
-16 4 -22 11 -18 7 5 7 2 -1 -8 -14 -18 -24 -281 -9 -272 5 4 6 1 0 -8 -12
-20 -14 -38 -3 -45 5 -3 6 -11 2 -17 -12 -19 -12 -111 0 -126 9 -11 9 -13 0
-8 -8 5 -11 -11 -11 -60 1 -38 0 -100 -2 -139 -2 -39 0 -76 4 -83 4 -6 2 -11
-5 -11 -10 0 -10 -3 -2 -11 7 -7 8 -21 3 -39 -4 -15 -4 -33 1 -41 4 -8 4 -16
-1 -19 -6 -4 -6 -18 -1 -38 6 -20 6 -30 0 -27 -11 8 -11 7 0 -33 6 -20 6 -30
0 -27 -5 4 -9 2 -9 -4 0 -5 5 -13 10 -16 6 -4 8 -11 4 -16 -11 -19 -14 -58 -4
-64 7 -4 7 -11 2 -18 -5 -7 -9 -91 -9 -189 0 -97 -3 -181 -7 -186 -3 -6 -2
-13 4 -17 6 -4 8 -11 4 -16 -3 -5 -7 -112 -9 -237 -2 -125 -5 -227 -5 -227 -1
0 -3 -44 -4 -97 -2 -67 1 -95 8 -91 6 4 6 0 -1 -8 -15 -18 -22 -249 -8 -249 7
0 7 -3 0 -8 -6 -4 -10 -34 -10 -67 0 -33 -3 -76 -6 -96 -3 -19 -2 -46 3 -58 4
-12 4 -20 -1 -17 -4 3 -7 -22 -7 -54 1 -33 -3 -60 -7 -60 -5 0 -6 -4 -3 -9 7
-11 -12 -65 -52 -151 -50 -107 -73 -160 -112 -260 -45 -114 -110 -296 -116
-327 -2 -12 -9 -35 -15 -50 -6 -16 -12 -35 -14 -43 -2 -8 -14 -60 -28 -115
-27 -106 -62 -273 -72 -340 -3 -23 -8 -52 -10 -65 -9 -41 -15 -137 -20 -285
-2 -77 -5 -142 -6 -145 -1 -3 -1 -8 0 -12 0 -4 1 -36 1 -70 0 -35 0 -76 1 -93
0 -16 1 -36 0 -42 -1 -7 -1 -19 -2 -25 0 -7 2 -74 5 -148 5 -132 7 -156 26
-270 5 -30 12 -71 15 -90 15 -96 73 -349 94 -410 5 -14 19 -59 31 -100 12 -41
28 -93 37 -115 8 -22 16 -47 18 -55 4 -18 83 -214 115 -285 376 -837 1031
-1505 1885 -1922 87 -42 136 -64 290 -128 17 -7 53 -20 80 -30 28 -9 59 -21
70 -25 20 -8 80 -23 80 -20 0 1 18 -5 40 -14 42 -16 254 -71 315 -81 19 -3 43
-8 53 -11 11 -3 29 -7 40 -9 12 -1 63 -10 112 -18 86 -15 167 -27 210 -32 191
-23 611 -23 790 1 28 3 61 7 75 9 80 9 139 17 170 25 19 5 55 12 80 15 25 3
61 10 80 15 19 5 46 11 60 13 30 6 88 20 190 49 279 77 625 221 869 360 46 26
86 48 88 48 2 0 16 8 31 19 15 10 67 44 116 76 49 31 94 61 100 66 6 5 49 37
96 71 211 152 515 445 695 668 37 47 72 87 77 88 4 2 8 10 8 17 0 7 4 15 8 17
4 2 28 32 52 68 25 36 50 70 55 76 6 6 19 27 30 47 11 20 23 37 27 37 5 0 8 4
8 10 0 5 19 40 42 77 238 390 437 919 512 1363 3 14 5 25 6 25 1 0 3 14 5 30
2 17 7 50 11 75 12 76 12 81 20 215 12 219 6 700 -11 805 -2 14 -6 43 -10 65
-5 34 -15 92 -30 170 -2 11 -7 36 -10 55 -3 19 -9 42 -12 50 -3 8 -7 22 -8 30
-1 8 -6 31 -10 50 -5 19 -9 37 -10 40 -7 36 -29 117 -34 125 -3 6 -7 18 -8 27
-5 33 -75 243 -115 343 -21 55 -74 174 -117 265 -78 163 -102 238 -127 395 -2
17 -7 41 -10 53 -3 13 -7 43 -10 65 -6 44 -10 67 -18 105 -3 13 -6 48 -8 78
-2 30 -5 54 -8 54 -3 0 -7 26 -8 58 -1 32 -5 69 -8 82 -2 14 -7 54 -9 90 -11
149 -14 181 -21 192 -5 7 -3 8 6 3 9 -5 11 -4 6 4 -10 15 -14 162 -6 209 7 43
-6 130 -23 151 -9 11 -9 13 0 8 14 -9 13 85 -2 95 -6 5 -7 8 0 8 7 0 10 172 9
499 l-1 499 26 8 c14 4 29 7 34 6 4 -1 7 3 7 9 0 7 -7 8 -17 4 -27 -11 -42
-11 -43 0 -1 6 7 12 17 14 10 2 44 21 75 43 32 21 58 36 58 33 0 -3 11 2 25
11 27 17 35 4 10 -18 -31 -28 -43 -37 -81 -57 -25 -14 -30 -19 -14 -15 45 12
130 79 134 107 1 7 5 18 9 25 5 6 4 12 0 12 -5 0 -15 -6 -22 -12 -11 -11 -13
-10 -8 3 4 14 0 15 -39 6 -24 -6 -44 -14 -44 -18 0 -5 11 -5 23 0 15 6 29 5
38 -1 11 -8 10 -9 -4 -4 -10 3 -20 0 -23 -8 -3 -7 -10 -13 -17 -13 -7 0 -24
-3 -39 -6 -16 -3 -28 -1 -28 4 0 5 6 9 14 9 8 0 18 4 21 10 4 6 -1 7 -12 3
-16 -6 -17 -5 -3 13 8 10 21 24 29 30 8 6 11 16 7 22 -5 8 -1 10 10 5 12 -4
15 -2 12 8 -3 8 -11 13 -17 11 -7 -1 -9 3 -6 9 5 8 10 8 18 0 13 -13 30 -15
23 -2 -3 5 1 11 9 15 8 3 15 12 15 21 0 8 5 15 11 15 5 0 7 5 4 10 -3 6 -2 10
3 10 5 0 12 12 15 28 3 15 8 38 12 52 4 14 8 32 10 40 1 8 5 22 8 30 3 8 15
53 27 100 12 47 26 96 31 108 l9 24 -27 -21 c-20 -17 -28 -19 -34 -9 -7 10
-11 10 -21 0 -6 -6 -16 -12 -21 -12 -5 0 20 32 54 70 38 43 65 66 69 59 4 -6
10 -10 14 -10 18 3 16 -1 -10 -21 -54 -42 -89 -78 -76 -78 7 0 20 7 28 15 8 8
21 12 29 9 8 -4 15 -2 15 2 0 5 30 41 68 80 94 100 142 154 135 154 -3 0 6 11
21 25 15 14 24 30 20 37 -4 6 -3 8 3 5 13 -8 30 11 35 38 1 11 8 23 13 27 17
13 15 170 -2 198 -33 51 -70 77 -105 71 -5 0 -8 4 -8 10 0 6 -5 7 -12 2 -21
-12 -48 -14 -48 -2 0 5 6 7 13 3 10 -6 10 -4 0 7 -10 10 -16 10 -25 1 -7 -7
-17 -12 -22 -12 -6 0 -5 4 2 9 9 5 -10 8 -47 7 -35 -1 -61 3 -61 9 0 7 -3 7
-8 0 -8 -11 -102 -14 -102 -3 0 4 -13 3 -29 -2 -16 -4 -32 -6 -35 -3 -2 3 -64
7 -137 9 -72 3 -135 7 -140 10 -5 3 -9 -3 -10 -13 0 -10 -3 -13 -6 -5 -7 18
-53 15 -77 -5 -17 -15 -19 -15 -8 -1 9 11 10 18 2 23 -5 3 -10 2 -10 -3 0 -5
-11 -7 -25 -5 -13 3 -38 0 -54 -5 -20 -7 -33 -7 -37 -1 -4 6 -11 6 -19 -1 -8
-7 -19 -9 -25 -5 -5 3 -10 3 -10 -2 0 -4 -12 -8 -27 -8 -16 -1 -53 -4 -83 -8
-175 -21 -241 -25 -512 -28 -154 -2 -215 -5 -211 -13 5 -8 3 -8 -8 0 -8 6 -36
9 -64 8 -27 -2 -70 -4 -95 -5 -25 -1 -51 -6 -57 -12 -9 -6 -13 -6 -13 2 0 8
-6 9 -17 3 -10 -5 -24 -7 -32 -4 -9 3 -11 0 -6 -8 6 -9 3 -10 -10 -2 -11 6
-30 6 -50 1 -38 -11 -82 -18 -150 -24 -27 -2 -70 -7 -95 -10 -108 -13 -367
-18 -985 -18 -739 0 -1157 11 -1460 38 -27 3 -90 7 -140 9 -49 3 -90 6 -90 7
0 1 -13 3 -30 4 -16 2 -50 5 -75 9 -25 3 -74 8 -110 11 -36 4 -76 9 -90 11
-14 3 -46 7 -71 9 -25 2 -59 6 -75 9 -16 3 -54 8 -84 12 -30 3 -66 7 -80 10
-42 8 -98 15 -144 17 -24 1 -42 5 -40 8 2 3 -11 7 -29 8 -66 4 -82 7 -94 14
-8 5 -13 3 -13 -5 0 -10 -2 -10 -8 -1 -4 7 -35 13 -70 15 -34 2 -62 5 -62 8 0
3 -8 6 -17 7 -53 4 -142 13 -173 17 -19 2 -80 7 -135 11 -55 4 -104 10 -109
12 -4 3 -12 -1 -17 -8 -8 -12 -10 -12 -18 0 -7 11 -9 11 -14 0 -4 -10 -6 -10
-6 -1 -1 6 -10 12 -20 12 -14 0 -18 -6 -15 -22 l5 -23 -10 23 c-6 12 -15 22
-21 22 -6 0 -8 -4 -5 -10 3 -5 1 -10 -4 -10 -6 0 -11 5 -11 10 0 6 -9 10 -21
10 -13 0 -18 -4 -13 -12 6 -10 4 -10 -7 0 -7 6 -20 12 -28 12 -14 0 -14 -1 -1
-10 8 -5 10 -10 4 -10 -6 0 -14 3 -18 7 -10 10 -48 15 -42 5 2 -4 0 -14 -6
-22 -8 -12 -9 -12 -4 3 7 22 -22 36 -35 16 -7 -12 -9 -12 -9 0 0 12 -3 12 -12
3 -7 -7 -17 -12 -22 -12 -6 0 -4 5 4 10 13 8 13 10 -2 10 -9 0 -19 -6 -21 -12
-4 -10 -6 -9 -6 1 -1 11 -4 11 -18 0 -11 -10 -14 -10 -9 -1 4 7 1 12 -9 12
-10 0 -13 -5 -9 -12 6 -10 5 -10 -7 -1 -18 15 -110 13 -101 -2 3 -5 -2 -4 -11
4 -11 9 -17 10 -17 2 0 -6 -5 -11 -11 -11 -5 0 -7 6 -3 13 5 8 2 8 -9 -2 -9
-7 -17 -9 -17 -4 0 5 -7 10 -15 10 -8 0 -12 -4 -10 -8z m190 -21 c5 -4 0 -6
-12 -6 -13 1 -19 7 -16 15 3 8 8 10 12 6 3 -4 10 -11 16 -15z m-45 2 c0 -5 -5
-10 -11 -10 -5 0 -7 5 -4 10 3 6 8 10 11 10 2 0 4 -4 4 -10z m240 0 c0 -5 -5
-10 -11 -10 -5 0 -7 5 -4 10 3 6 8 10 11 10 2 0 4 -4 4 -10z m335 1 c3 -5 2
-12 -3 -15 -5 -3 -9 1 -9 9 0 17 3 19 12 6z m-838 -17 c-3 -3 -12 -4 -19 -1
-8 3 -5 6 6 6 11 1 17 -2 13 -5z m723 -4 c0 -5 -8 -10 -17 -10 -15 0 -16 2 -3
10 19 12 20 12 20 0z m-145 -10 c-3 -5 2 -10 12 -11 10 0 83 -3 163 -6 80 -3
182 -6 227 -7 46 0 83 -4 83 -7 0 -3 24 -7 53 -8 61 -3 102 -8 137 -14 23 -5
70 -11 175 -23 22 -3 51 -7 65 -10 27 -5 87 -12 160 -19 25 -2 45 -5 45 -6 0
-2 47 -8 105 -12 30 -3 66 -8 80 -11 14 -4 54 -8 90 -11 36 -2 65 -5 65 -6 0
-1 36 -5 121 -13 38 -3 90 -8 115 -11 84 -8 309 -23 372 -24 28 -1 37 -5 37
-18 0 -11 -3 -14 -8 -7 -4 7 -36 11 -79 10 -39 0 -69 2 -66 7 2 4 -5 7 -16 7
-12 0 -21 -6 -21 -12 0 -9 -3 -9 -9 1 -8 13 -12 13 -27 0 -10 -8 -15 -9 -11
-2 5 7 1 12 -10 11 -30 -1 -177 13 -184 18 -4 2 -11 -1 -15 -7 -4 -7 -9 -7
-13 -1 -3 5 -44 13 -91 16 -47 4 -101 9 -120 11 -86 9 -147 16 -175 20 -16 2
-64 7 -105 10 -41 4 -77 9 -79 11 -2 2 -11 -2 -19 -9 -13 -9 -14 -9 -8 1 4 6
4 12 -1 13 -40 3 -87 8 -133 14 -30 4 -68 9 -85 11 -16 1 -45 6 -62 9 -24 4
-33 2 -33 -7 0 -10 -2 -10 -8 -1 -7 11 -54 20 -157 28 -27 2 -66 6 -85 9 -78
13 -161 16 -515 21 -203 3 -371 8 -374 10 -2 3 -10 0 -18 -6 -7 -6 -13 -7 -13
-2 0 5 -20 8 -44 6 -25 -2 -47 0 -50 5 -6 11 4 11 281 14 127 2 235 6 239 11
11 10 16 9 9 -3z m98 3 c-7 -2 -19 -2 -25 0 -7 3 -2 5 12 5 14 0 19 -2 13 -5z
m90 0 c-7 -2 -19 -2 -25 0 -7 3 -2 5 12 5 14 0 19 -2 13 -5z m37 -3 c0 -5 -2
-10 -4 -10 -3 0 -8 5 -11 10 -3 6 -1 10 4 10 6 0 11 -4 11 -10z m120 0 c0 -5
-8 -10 -17 -10 -15 0 -16 2 -3 10 19 12 20 12 20 0z m-43 -6 c-3 -3 -12 -4
-19 -1 -8 3 -5 6 6 6 11 1 17 -2 13 -5z m127 -5 c4 -3 -7 -5 -24 -4 -17 1 -33
4 -36 7 -3 3 8 5 25 4 16 -1 32 -4 35 -7z m116 7 c0 -2 -7 -7 -16 -10 -8 -3
-12 -2 -9 4 6 10 25 14 25 6z m-1151 -32 c2 -2 -25 -4 -60 -4 -45 0 -60 3 -49
10 13 9 98 4 109 -6z m826 -62 c-3 -3 -11 0 -18 7 -9 10 -8 11 6 5 10 -3 15
-9 12 -12z m5868 2 c15 -1 27 4 27 10 0 8 2 8 8 0 4 -6 27 -11 52 -11 144 0
221 -4 216 -12 -3 -5 -15 -7 -26 -4 -12 3 -20 0 -20 -6 0 -7 5 -9 12 -5 7 4 8
3 4 -5 -4 -6 -13 -8 -19 -4 -20 12 -241 11 -249 -1 -5 -8 -8 -7 -8 2 0 6 -12
12 -26 12 -17 0 -23 -4 -18 -12 6 -10 5 -10 -7 -2 -14 12 -58 12 -319 -2 -69
-3 -134 -6 -145 -6 -10 1 -25 -3 -31 -9 -7 -5 -15 -6 -18 -1 -2 4 -20 7 -38 5
-18 -2 -73 -5 -123 -8 -49 -2 -128 -7 -175 -10 -47 -3 -105 -7 -130 -8 -25 -1
-50 -6 -57 -10 -6 -4 -14 -3 -18 3 -4 6 -10 8 -14 6 -4 -3 -57 -8 -117 -11
-60 -3 -133 -8 -161 -10 -29 -2 -53 0 -53 5 0 4 6 7 13 7 6 -1 53 2 102 6 50
4 126 10 170 13 71 4 101 15 90 34 -2 4 3 7 11 7 10 0 11 -4 4 -11 -19 -19
-10 -24 48 -20 152 9 234 14 317 20 50 3 119 7 155 9 36 2 108 6 160 10 121 9
188 13 272 16 43 1 65 6 61 12 -4 6 -1 7 8 1 8 -5 26 -9 42 -10z m515 -19 c-3
-3 -9 2 -12 12 -6 14 -5 15 5 6 7 -7 10 -15 7 -18z m-171 9 c-3 -3 -12 -4 -19
-1 -8 3 -5 6 6 6 11 1 17 -2 13 -5z m33 2 c0 -3 -4 -8 -10 -11 -5 -3 -10 -1
-10 4 0 6 5 11 10 11 6 0 10 -2 10 -4z m296 -8 c-9 -5 -23 -5 -32 0 -12 6 -7
9 16 9 23 0 28 -3 16 -9z m-1896 -2 c0 -3 -4 -8 -10 -11 -5 -3 -10 -1 -10 4 0
6 5 11 10 11 6 0 10 -2 10 -4z m-5752 -23 c-8 -10 -20 -27 -26 -38 -10 -17
-11 -18 -12 -2 0 9 9 26 20 37 25 25 39 27 18 3z m1176 9 c3 -5 -1 -9 -9 -9
-8 0 -12 4 -9 9 3 4 7 8 9 8 2 0 6 -4 9 -8z m376 2 c0 -8 -19 -13 -24 -6 -3 5
1 9 9 9 8 0 15 -2 15 -3z m6065 -4 c3 -6 -1 -7 -9 -4 -18 7 -21 14 -7 14 6 0
13 -4 16 -10z m-39 -20 c18 -6 38 -17 44 -25 7 -8 15 -13 19 -11 14 9 4 -120
-12 -149 -10 -18 -17 -24 -18 -15 -1 8 -3 20 -4 25 -2 6 -3 19 -4 31 -2 42
-59 111 -114 138 l-52 26 54 -5 c30 -3 69 -9 87 -15z m88 12 c2 -4 -4 -8 -14
-8 -10 0 -16 4 -14 8 3 4 9 8 14 8 5 0 11 -4 14 -8z m-7554 -12 c0 -5 -5 -10
-11 -10 -5 0 -7 5 -4 10 3 6 8 10 11 10 2 0 4 -4 4 -10z m94 -6 c3 -8 2 -12
-4 -9 -6 3 -10 10 -10 16 0 14 7 11 14 -7z m5480 4 c-3 -4 -11 -5 -19 -1 -21
7 -19 12 4 10 11 0 18 -5 15 -9z m-5644 -3 c0 0 -9 -8 -19 -17 -18 -16 -20
-15 -18 1 0 9 9 17 19 17 10 0 18 -1 18 -1z m-106 -44 c-3 -3 -9 1 -14 9 -7
10 -10 11 -10 3 0 -7 -9 -13 -21 -13 -11 0 -17 5 -14 10 4 6 11 8 16 5 5 -4
12 1 16 11 6 16 7 16 20 -1 7 -10 10 -21 7 -24z m229 24 c4 -8 3 -16 -1 -19
-4 -3 -9 4 -9 15 -2 23 3 25 10 4z m107 1 c-7 -7 -13 -7 -20 0 -6 6 -3 10 10
10 13 0 16 -4 10 -10z m261 -17 c-13 -10 -29 -19 -37 -19 -8 0 -14 -4 -14 -10
0 -5 -7 -10 -15 -10 -15 0 -26 -8 -92 -64 -33 -28 -65 -84 -78 -138 l-7 -26
-26 30 c-15 17 -42 46 -59 65 -18 18 -33 36 -33 38 0 10 -43 54 -49 51 -3 -2
-7 7 -7 20 -1 16 4 24 15 25 9 0 25 2 36 5 11 2 37 6 59 9 21 3 52 8 70 11 17
4 44 6 59 5 20 -1 26 2 21 10 -5 8 -3 9 6 4 23 -14 144 -5 153 12 5 8 12 12
15 8 4 -4 -4 -15 -17 -26z m63 19 c-3 -4 -9 -8 -15 -8 -5 0 -9 4 -9 8 0 5 7 9
15 9 8 0 12 -4 9 -9z m70 3 c-8 -8 -54 -7 -54 1 0 5 13 7 30 6 16 -1 27 -4 24
-7z m41 -1 c3 -5 1 -10 -4 -10 -6 0 -11 5 -11 10 0 6 2 10 4 10 3 0 8 -4 11
-10z m-620 -20 c-2 -4 -14 -6 -27 -5 -13 1 -30 -3 -38 -9 -13 -9 -13 -9 -3 5
12 14 77 23 68 9z m45 0 c0 -5 -2 -10 -4 -10 -3 0 -8 5 -11 10 -3 6 -1 10 4
10 6 0 11 -4 11 -10z m546 -12 c-10 -6 -20 -7 -24 -3 -9 8 20 25 31 18 5 -3 2
-10 -7 -15z m4834 12 c0 -5 -19 -10 -42 -11 -24 -1 -54 -2 -68 -4 -14 -1 -45
-4 -70 -6 -25 -2 -48 -8 -52 -14 -5 -7 -8 -6 -8 1 0 8 -14 10 -40 8 -22 -2
-40 0 -40 4 0 5 21 8 48 9 71 0 246 13 251 18 8 9 21 5 21 -5z m680 6 c0 -2
-7 -7 -16 -10 -8 -3 -12 -2 -9 4 6 10 25 14 25 6z m1137 -11 c0 -8 -4 -12 -9
-9 -5 3 -6 10 -3 15 9 13 12 11 12 -6z m-397 -29 c0 -6 -5 -5 -11 1 -6 6 -22
8 -38 4 -14 -3 -51 -4 -81 0 -61 6 -34 12 49 9 38 -1 51 2 46 10 -5 7 1 7 14
-2 12 -7 21 -17 21 -22z m747 12 c-3 -8 -6 -5 -6 6 -1 11 2 17 5 13 3 -3 4
-12 1 -19z m-7823 4 c2 -4 -4 -8 -14 -8 -10 0 -16 4 -14 8 3 4 9 8 14 8 5 0
11 -4 14 -8z m1076 -3 c0 -3 26 -7 58 -8 31 -2 68 -4 82 -5 14 -1 31 3 39 8
11 8 13 8 7 -1 -5 -10 3 -13 31 -14 21 -1 52 -2 68 -4 17 -2 65 -5 107 -7 43
-1 78 -5 78 -8 0 -3 15 -6 33 -6 17 -1 70 -4 117 -9 47 -4 112 -9 145 -11 33
-3 76 -7 95 -9 19 -2 64 -6 100 -9 36 -3 90 -8 120 -11 30 -3 82 -8 115 -11
33 -2 76 -6 95 -8 111 -11 232 -20 282 -20 32 -1 58 -3 58 -6 0 -3 15 -6 33
-6 17 -1 73 -4 122 -8 50 -4 122 -9 160 -11 39 -2 103 -7 144 -10 78 -7 196
-12 451 -20 85 -3 172 -7 193 -8 21 -1 41 1 44 5 2 5 10 5 16 1 16 -10 78 -10
100 0 9 4 17 4 17 0 0 -10 182 -9 198 1 7 4 12 3 12 -2 0 -10 30 -9 48 2 7 4
12 2 12 -4 0 -8 6 -8 20 0 11 6 20 7 20 3 0 -4 30 -7 67 -5 38 1 123 4 190 5
68 1 123 6 123 11 0 5 6 4 13 -1 6 -5 32 -8 57 -7 25 1 142 5 260 8 308 10
383 13 765 32 61 3 143 6 182 7 40 1 73 4 73 7 0 3 46 6 103 7 56 1 133 2 170
3 50 1 66 4 60 13 -5 9 -3 9 8 1 16 -12 107 -13 127 -1 7 5 12 3 12 -3 0 -6 5
-8 10 -5 6 4 102 9 213 11 111 3 232 6 270 7 37 1 67 1 67 0 0 -1 -11 -13 -25
-27 -14 -14 -25 -22 -25 -18 0 8 -59 -60 -61 -70 -2 -14 -6 -28 -9 -30 -6 -8
-27 -206 -35 -323 -7 -117 -16 -251 -21 -295 -2 -25 -6 -70 -9 -100 -7 -71
-21 -98 -57 -105 -18 -4 -26 -11 -21 -18 5 -8 2 -8 -9 0 -8 7 -18 10 -22 6 -3
-4 -12 -8 -19 -10 -7 -1 -32 -7 -57 -14 -25 -6 -49 -12 -55 -13 -5 -2 -31 -6
-57 -10 -26 -5 -46 -11 -44 -15 2 -3 -17 -7 -42 -8 -41 -1 -87 -8 -87 -13 0
-1 -13 -3 -30 -4 -47 -5 -136 -17 -159 -23 -12 -3 -36 -6 -53 -6 -18 -1 -33
-4 -33 -7 0 -3 -21 -6 -48 -7 -44 -1 -140 -8 -272 -19 -63 -5 -185 -12 -248
-13 -32 -1 -41 -4 -36 -13 6 -10 3 -9 -9 0 -18 15 -64 13 -86 -3 -10 -7 -13
-7 -9 1 5 7 -24 9 -90 6 -150 -6 -748 -5 -832 2 -133 11 -174 15 -227 21 -51
5 -79 7 -233 19 -99 8 -187 16 -230 21 -19 2 -64 6 -99 9 -35 3 -66 8 -69 11
-3 3 -16 -2 -29 -10 -16 -11 -22 -12 -21 -3 2 6 -5 14 -16 16 -13 3 -16 0 -10
-10 6 -10 5 -11 -7 -1 -15 12 -79 21 -269 38 -73 6 -166 17 -190 21 -52 10
-80 10 -80 0 0 -7 -3 -7 -8 0 -4 6 -34 14 -67 18 -33 4 -73 9 -90 11 -16 3
-51 7 -77 9 -25 2 -51 7 -57 10 -6 4 -11 1 -11 -6 0 -10 -2 -10 -8 -1 -5 7
-33 15 -63 17 -29 2 -61 6 -69 9 -8 3 -35 8 -60 11 -25 3 -54 7 -65 9 -11 3
-40 8 -65 12 -25 4 -52 9 -61 10 -9 2 -33 6 -53 9 -20 3 -53 10 -73 14 -21 5
-48 8 -60 7 -13 -1 -23 1 -23 5 0 4 -6 7 -12 8 -28 2 -83 10 -83 12 0 3 -60
13 -85 14 -14 1 -27 4 -30 7 -3 4 -21 9 -40 13 -19 3 -53 10 -75 15 -22 6 -61
14 -86 20 -26 5 -84 19 -129 31 -45 12 -89 19 -97 16 -8 -3 -11 -1 -8 4 3 6 1
10 -4 10 -16 0 -17 0 -73 22 -29 11 -61 20 -70 20 -10 -1 -18 4 -18 10 0 6
-11 8 -27 4 -17 -4 -23 -3 -15 2 9 6 -8 17 -55 37 -37 16 -112 50 -165 77 -54
26 -104 48 -113 48 -8 0 -15 4 -15 9 0 5 -15 14 -32 22 -37 14 -50 28 -40 43
7 12 9 246 2 246 -3 0 -6 44 -7 98 0 53 -3 118 -6 144 -4 30 -1 48 6 51 18 6
237 2 237 -4z m2120 4 c0 -5 -11 -8 -25 -8 -14 0 -25 3 -25 8 0 4 11 7 25 7
14 0 25 -3 25 -7z m87 -7 c4 -3 -13 -6 -36 -6 -23 0 -40 4 -37 8 5 9 64 7 73
-2z m3529 0 c18 5 18 5 0 -6 -15 -10 -21 -9 -35 6 -14 16 -14 17 0 6 9 -7 25
-10 35 -6z m-6754 -7 c-4 -3 -20 -10 -37 -13 -27 -7 -28 -6 -12 6 18 13 64 20
49 7z m125 -11 c-3 -8 -6 -5 -6 6 -1 11 2 17 5 13 3 -3 4 -12 1 -19z m3171 15
c-10 -2 -28 -2 -40 0 -13 2 -5 4 17 4 22 1 32 -1 23 -4z m45 -10 c-3 -7 -6
-13 -8 -13 -2 0 -5 6 -8 13 -3 8 1 14 8 14 7 0 11 -6 8 -14z m77 7 c0 -5 -5
-10 -11 -10 -5 0 -7 5 -4 10 3 6 8 10 11 10 2 0 4 -4 4 -10z m53 -5 c-3 -9 -8
-14 -10 -11 -3 3 -2 9 2 15 9 16 15 13 8 -4z m1517 -1 c0 -2 -7 -4 -15 -4 -8
0 -15 4 -15 10 0 5 7 7 15 4 8 -4 15 -8 15 -10z m34 -5 c-6 -11 -24 -2 -24 11
0 5 7 7 15 4 8 -4 12 -10 9 -15z m245 16 c-9 -8 -229 -14 -229 -5 0 3 53 8
117 9 65 1 115 -1 112 -4z m1555 -4 c-8 -8 -34 -10 -38 -2 -3 4 6 7 19 7 14 0
22 -2 19 -5z m239 2 c-7 -2 -19 -2 -25 0 -7 3 -2 5 12 5 14 0 19 -2 13 -5z
m-3549 -15 c-3 -4 0 -8 7 -8 7 0 9 -3 6 -6 -4 -4 -13 -2 -20 4 -8 7 -18 8 -22
4 -5 -4 -5 -2 -2 4 3 6 13 11 21 11 8 0 13 -4 10 -9z m980 4 c2 -4 -5 -9 -17
-9 -17 -2 -19 0 -7 7 18 12 18 12 24 2z m226 4 c0 -2 -9 -6 -20 -9 -11 -3 -18
-1 -14 4 5 9 34 13 34 5z m60 -8 c0 -11 -12 -10 -30 2 -12 7 -10 9 8 7 12 0
22 -5 22 -9z m166 5 c-8 -8 -145 -7 -154 1 -3 3 32 6 78 6 46 0 80 -3 76 -7z
m2649 -3 c3 -6 -1 -7 -9 -4 -18 7 -21 14 -7 14 6 0 13 -4 16 -10z m-7685 -6
c0 -8 -19 -13 -24 -6 -3 5 1 9 9 9 8 0 15 -2 15 -3z m3477 -16 c-3 -8 -6 -5
-6 6 -1 11 2 17 5 13 3 -3 4 -12 1 -19z m2286 15 c-7 -2 -19 -2 -25 0 -7 3 -2
5 12 5 14 0 19 -2 13 -5z m1848 -13 c6 0 8 4 5 8 -2 4 4 8 14 8 11 0 17 -2 15
-5 -3 -2 3 -14 12 -25 18 -21 18 -21 -3 -3 -22 18 -39 23 -29 8 7 -13 -55 5
-69 19 -8 8 -3 8 17 1 16 -6 33 -11 38 -11z m252 1 c2 -10 1 -24 -3 -30 -4 -7
-7 1 -8 18 -1 35 3 40 11 12z m-7804 -11 c-22 -19 -22 -20 -4 -18 12 2 20 -3
21 -12 1 -31 46 -113 78 -142 10 -10 16 -18 12 -18 -4 0 3 -11 16 -24 13 -13
42 -45 65 -72 87 -102 122 -136 134 -128 8 4 9 3 5 -4 -8 -14 24 -53 37 -45 6
4 7 1 2 -6 -8 -15 -17 -8 -163 134 -57 55 -107 99 -112 98 -5 -2 -7 4 -3 13 5
13 2 15 -15 9 -14 -4 -22 -2 -22 5 0 6 5 8 10 5 23 -14 9 10 -32 55 -9 10 -14
21 -10 24 3 3 1 6 -5 6 -6 0 -13 9 -16 21 -4 14 -10 18 -19 13 -10 -6 -10 -5
-2 7 11 14 11 45 0 57 -7 7 23 42 37 42 5 0 -1 -9 -14 -20z m3611 8 c0 -11
-12 -10 -30 2 -12 7 -10 9 8 7 12 0 22 -5 22 -9z m70 7 c0 -2 -6 -8 -13 -14
-10 -8 -14 -7 -14 2 0 8 6 14 14 14 7 0 13 -1 13 -2z m80 -1 c0 -8 -19 -13
-24 -6 -3 5 1 9 9 9 8 0 15 -2 15 -3z m70 -4 c0 -5 -2 -10 -4 -10 -3 0 -8 5
-11 10 -3 6 -1 10 4 10 6 0 11 -4 11 -10z m60 6 c0 -7 -40 -14 -44 -7 -3 4 6
8 20 9 13 1 24 0 24 -2z m720 0 c0 -2 -7 -9 -15 -16 -13 -11 -14 -10 -9 4 5
14 24 23 24 12z m395 -15 c-3 -6 -11 -11 -16 -11 -5 0 -4 6 3 14 14 16 24 13
13 -3z m100 1 c-3 -3 -11 0 -18 7 -9 10 -8 11 6 5 10 -3 15 -9 12 -12z m-261
0 c3 -5 -1 -9 -9 -9 -8 0 -12 4 -9 9 3 4 7 8 9 8 2 0 6 -4 9 -8z m90 0 c3 -5
-1 -9 -9 -9 -8 0 -12 4 -9 9 3 4 7 8 9 8 2 0 6 -4 9 -8z m250 -4 c-3 -4 -11
-5 -19 -1 -21 7 -19 12 4 10 11 0 18 -5 15 -9z m37 -5 c13 -16 12 -17 -3 -4
-10 7 -18 15 -18 17 0 8 8 3 21 -13z m2043 9 c3 -5 -1 -9 -9 -9 -8 0 -12 4 -9
9 3 4 7 8 9 8 2 0 6 -4 9 -8z m384 -17 c-3 -3 -9 2 -12 12 -6 14 -5 15 5 6 7
-7 10 -15 7 -18z m-4283 5 c3 -5 1 -10 -4 -10 -6 0 -11 5 -11 10 0 6 2 10 4
10 3 0 8 -4 11 -10z m793 -7 c-2 -13 -13 -18 -36 -18 -17 0 -32 4 -32 9 0 4
14 6 30 4 20 -3 30 0 30 9 0 7 3 13 6 13 3 0 4 -8 2 -17z m39 -15 c-3 -7 -5
-2 -5 12 0 14 2 19 5 13 2 -7 2 -19 0 -25z m80 0 c-3 -7 -5 -2 -5 12 0 14 2
19 5 13 2 -7 2 -19 0 -25z m130 26 c-3 -3 -12 -4 -19 -1 -8 3 -5 6 6 6 11 1
17 -2 13 -5z m320 0 c-3 -3 -12 -4 -19 -1 -8 3 -5 6 6 6 11 1 17 -2 13 -5z
m346 -1 c-7 -2 -19 -2 -25 0 -7 3 -2 5 12 5 14 0 19 -2 13 -5z m1672 -11 c-3
-3 -11 0 -18 7 -9 10 -8 11 6 5 10 -3 15 -9 12 -12z m65 -1 c7 -15 7 -19 -5
-17 -8 1 -18 6 -22 11 -5 4 -2 5 6 0 11 -6 13 -4 8 8 -9 23 0 21 13 -2z m177
13 c-3 -3 -12 -4 -19 -1 -8 3 -5 6 6 6 11 1 17 -2 13 -5z m80 0 c-3 -3 -12 -4
-19 -1 -8 3 -5 6 6 6 11 1 17 -2 13 -5z m40 0 c-3 -3 -12 -4 -19 -1 -8 3 -5 6
6 6 11 1 17 -2 13 -5z m-7162 -13 c3 -5 2 -12 -3 -15 -5 -3 -9 1 -9 9 0 17 3
19 12 6z m242 -6 c0 -8 -4 -12 -9 -9 -5 3 -6 10 -3 15 9 13 12 11 12 -6z
m3673 10 c0 -10 -45 -23 -55 -17 -5 4 4 10 20 13 17 4 31 7 33 8 1 0 2 -1 2
-4z m2839 -11 c4 3 13 1 20 -4 9 -5 3 -7 -17 -7 -22 1 -28 6 -24 16 4 10 7 11
10 3 2 -7 7 -10 11 -8z m-6529 -29 c0 -5 -5 -3 -10 5 -5 8 -10 20 -10 25 0 6
5 3 10 -5 5 -8 10 -19 10 -25z m3460 31 c0 -2 -7 -7 -16 -10 -8 -3 -12 -2 -9
4 6 10 25 14 25 6z m157 -2 c-3 -3 -12 -4 -19 -1 -8 3 -5 6 6 6 11 1 17 -2 13
-5z m188 -2 c-8 -8 -105 -8 -105 0 0 4 25 6 55 6 30 -1 52 -4 50 -6z m100 -1
c-5 -9 -73 -7 -81 2 -4 3 14 6 39 5 26 0 45 -4 42 -7z m176 0 c-8 -5 -20 -7
-28 -4 -21 8 -15 13 15 13 20 0 23 -3 13 -9z m179 0 c0 -8 -129 -5 -137 3 -4
4 26 6 65 5 40 -1 72 -4 72 -8z m107 2 c-10 -10 -87 -11 -93 -2 -3 5 18 9 47
9 29 0 49 -3 46 -7z m133 -2 c0 -3 -27 -6 -60 -6 -33 0 -60 3 -60 7 0 4 27 7
60 6 33 -1 60 -4 60 -7z m40 5 c0 -11 -19 -15 -25 -6 -3 5 1 10 9 10 9 0 16
-2 16 -4z m77 -3 c-10 -9 -67 -10 -67 0 0 4 17 7 37 7 20 0 33 -3 30 -7z m43
3 c0 -11 -19 -15 -25 -6 -3 5 1 10 9 10 9 0 16 -2 16 -4z m50 0 c0 -9 -30 -14
-35 -6 -4 6 3 10 14 10 12 0 21 -2 21 -4z m70 -1 c0 -7 -39 -12 -49 -5 -7 4 1
7 18 8 17 0 31 -1 31 -3z m1507 -17 c-3 -8 -6 -5 -6 6 -1 11 2 17 5 13 3 -3 4
-12 1 -19z m94 4 c-7 -2 -18 1 -23 6 -8 8 -4 9 13 5 13 -4 18 -8 10 -11z m319
8 c0 -5 -5 -10 -11 -10 -5 0 -7 5 -4 10 3 6 8 10 11 10 2 0 4 -4 4 -10z m60 6
c0 -3 -4 -8 -10 -11 -5 -3 -10 -1 -10 4 0 6 5 11 10 11 6 0 10 -2 10 -4z m80
-6 c0 -5 -2 -10 -4 -10 -3 0 -8 5 -11 10 -3 6 -1 10 4 10 6 0 11 -4 11 -10z
m224 -1 c-2 -3 -17 -6 -34 -7 -17 0 -38 -6 -46 -13 -15 -12 -17 -9 -8 14 4 10
19 14 49 13 24 0 41 -4 39 -7z m56 -4 c0 -9 -6 -12 -15 -9 -8 4 -12 10 -9 15
8 14 24 10 24 -6z m231 -8 c-10 -9 -11 -8 -5 6 3 10 9 15 12 12 3 -3 0 -11 -7
-18z m43 15 c3 -5 -1 -9 -9 -9 -8 0 -12 4 -9 9 3 4 7 8 9 8 2 0 6 -4 9 -8z
m-7420 -20 c3 -5 -1 -9 -9 -9 -8 0 -12 4 -9 9 3 4 7 8 9 8 2 0 6 -4 9 -8z
m563 2 c-3 -3 -12 -4 -19 -1 -8 3 -5 6 6 6 11 1 17 -2 13 -5z m5663 -4 c0 -5
-2 -10 -4 -10 -3 0 -8 5 -11 10 -3 6 -1 10 4 10 6 0 11 -4 11 -10z m730 0
c-20 -13 -33 -13 -25 0 3 6 14 10 23 10 15 0 15 -2 2 -10z m-6989 -17 c13 -16
12 -17 -3 -4 -10 7 -18 15 -18 17 0 8 8 3 21 -13z m124 -3 c10 -11 16 -20 13
-20 -3 0 -13 9 -23 20 -10 11 -16 20 -13 20 3 0 13 -9 23 -20z m7210 11 c3 -5
2 -12 -3 -15 -5 -3 -9 1 -9 9 0 17 3 19 12 6z m-7205 -55 c0 -6 -5 -3 -11 7
-6 9 -15 15 -20 11 -5 -3 -8 0 -7 8 2 7 -3 12 -10 10 -8 -1 -11 2 -7 9 8 12
55 -27 55 -45z m7304 33 c-3 -6 0 -18 8 -27 11 -15 11 -15 -3 -5 -9 7 -18 11
-20 9 -2 -2 -4 6 -4 19 0 14 5 21 12 18 7 -3 10 -9 7 -14z m-194 7 c0 -3 -4
-8 -10 -11 -5 -3 -10 -1 -10 4 0 6 5 11 10 11 6 0 10 -2 10 -4z m155 -33 c-1
-21 -3 -41 -4 -45 -1 -5 -6 -8 -12 -8 -8 0 -8 4 -2 13 6 6 9 27 8 45 -2 17 1
32 5 32 5 0 7 -17 5 -37z m-7315 -3 c8 -14 6 -18 -5 -16 -8 1 -21 8 -28 16
-10 12 -9 12 6 1 20 -15 23 -2 5 18 -10 11 -10 12 -1 7 7 -4 17 -15 23 -26z
m7287 8 c-3 -8 -6 -5 -6 6 -1 11 2 17 5 13 3 -3 4 -12 1 -19z m116 7 c-3 -9
-8 -14 -10 -11 -3 3 -2 9 2 15 9 16 15 13 8 -4z m-7443 -39 c0 -12 -5 -7 -19
24 -11 24 -11 24 3 6 9 -11 16 -24 16 -30z m519 22 c0 -13 -3 -18 -5 -11 -3 7
-13 9 -22 6 -13 -4 -12 -2 3 10 26 21 25 21 24 -5z m6791 12 c0 -5 -2 -10 -4
-10 -3 0 -8 5 -11 10 -3 6 -1 10 4 10 6 0 11 -4 11 -10z m-7195 -19 c-4 -13 0
-23 12 -30 10 -6 13 -11 7 -11 -18 0 -35 26 -28 44 9 23 17 20 9 -3z m7131 5
c5 -14 -24 -76 -36 -76 -9 0 -5 75 5 82 15 12 25 9 31 -6z m34 4 c0 -5 -4 -10
-10 -10 -5 0 -10 5 -10 10 0 6 5 10 10 10 6 0 10 -4 10 -10z m-7487 -15 c-3
-9 -8 -14 -10 -11 -3 3 -2 9 2 15 9 16 15 13 8 -4z m661 -7 c-3 -4 -11 -8 -17
-7 -27 3 -36 -2 -31 -16 5 -13 9 -13 23 -3 14 12 15 11 2 -5 -14 -18 -16 -18
-28 -1 -7 10 -19 22 -25 27 -9 6 -8 7 4 3 10 -3 20 -1 22 3 3 5 17 9 31 9 13
0 22 -5 19 -10z m6866 1 c0 -4 -9 -7 -19 -6 -11 0 -18 4 -16 7 6 9 35 8 35 -1z
m260 2 c0 -6 -4 -13 -10 -16 -5 -3 -10 1 -10 9 0 9 5 16 10 16 6 0 10 -4 10
-9z m35 0 c3 -5 2 -12 -3 -15 -5 -3 -9 1 -9 9 0 17 3 19 12 6z m-7797 -26 c-3
-3 -9 2 -12 12 -6 14 -5 15 5 6 7 -7 10 -15 7 -18z m7662 -1 c0 -2 -9 0 -20 6
-11 6 -20 13 -20 16 0 2 9 0 20 -6 11 -6 20 -13 20 -16z m-7450 -9 c14 -19 14
-19 -2 -6 -10 7 -18 18 -18 24 0 6 1 8 3 6 1 -2 9 -13 17 -24z m45 -34 c1 -11
-2 -18 -7 -15 -5 3 -7 11 -5 17 3 7 -5 23 -17 37 l-20 25 24 -22 c13 -12 24
-31 25 -42z m20 50 c3 -5 2 -12 -3 -15 -5 -3 -9 1 -9 9 0 17 3 19 12 6z m440
-1 c3 -6 -1 -7 -9 -4 -18 7 -21 14 -7 14 6 0 13 -4 16 -10z m-661 -9 c3 -5 -1
-11 -9 -14 -9 -4 -12 -1 -8 9 6 16 10 17 17 5z m7101 -11 c-3 -5 -12 -10 -18
-10 -7 0 -6 4 3 10 19 12 23 12 15 0z m65 0 c0 -5 -4 -10 -10 -10 -5 0 -10 5
-10 10 0 6 5 10 10 10 6 0 10 -4 10 -10z m420 7 c0 -2 -8 -11 -18 -20 -15 -14
-19 -15 -19 -2 0 8 4 12 9 9 4 -3 8 0 8 5 0 6 5 11 10 11 6 0 10 -2 10 -3z
m80 -8 c0 -5 5 -7 10 -4 24 15 7 -14 -35 -59 -50 -54 -61 -83 -17 -45 l27 24
-28 -31 c-15 -17 -25 -33 -22 -36 3 -2 -2 -5 -10 -5 -12 0 -12 3 -2 16 10 12
9 14 -6 8 -12 -4 -4 13 24 55 23 34 42 68 42 75 0 7 4 13 9 13 4 0 8 -5 8 -11z
m-7423 -14 c0 -8 -4 -12 -9 -9 -5 3 -6 10 -3 15 9 13 12 11 12 -6z m54 -12
l24 -28 -27 24 c-18 16 -28 20 -28 11 0 -7 -3 -11 -6 -7 -5 5 3 27 10 27 1 0
13 -12 27 -27z m7187 2 c-3 -3 -9 2 -12 12 -6 14 -5 15 5 6 7 -7 10 -15 7 -18z
m-431 -7 c-3 -8 -6 -5 -6 6 -1 11 2 17 5 13 3 -3 4 -12 1 -19z m544 -5 c-12
-20 -14 -14 -5 12 4 9 9 14 11 11 3 -2 0 -13 -6 -23z m-7033 -8 c-3 -3 -9 2
-12 12 -6 14 -5 15 5 6 7 -7 10 -15 7 -18z m-598 0 c-11 -13 -3 -45 10 -45 4
0 11 -7 14 -16 5 -14 4 -15 -9 -4 -9 7 -25 26 -36 42 -18 24 -18 27 -3 21 10
-4 15 -2 11 4 -3 5 0 10 8 10 10 0 12 -4 5 -12z m7055 -5 c-10 -11 -21 -18
-23 -15 -3 3 3 12 14 20 27 20 30 18 9 -5z m-6676 -3 c8 -10 7 -14 -2 -14 -8
0 -14 6 -14 14 0 7 1 13 2 13 2 0 8 -6 14 -13z m166 4 c3 -6 -4 -15 -15 -21
-20 -11 -21 -10 -10 9 12 23 16 25 25 12z m6950 0 c3 -5 2 -12 -3 -15 -5 -3
-9 1 -9 9 0 17 3 19 12 6z m41 -6 c-1 -8 -5 -17 -8 -21 -5 -4 -4 16 1 34 3 9
9 -1 7 -13z m48 7 c3 -5 -1 -9 -9 -9 -8 0 -12 4 -9 9 3 4 7 8 9 8 2 0 6 -4 9
-8z m-424 -22 c0 -11 -4 -20 -10 -20 -5 0 -10 9 -10 20 0 11 5 20 10 20 6 0
10 -9 10 -20z m-6720 0 c0 -5 -4 -10 -10 -10 -5 0 -10 5 -10 10 0 6 5 10 10
10 6 0 10 -4 10 -10z m-105 -10 c3 -5 1 -10 -4 -10 -6 0 -11 5 -11 10 0 6 2
10 4 10 3 0 8 -4 11 -10z m-139 -97 c-4 -4 -49 40 -81 78 -11 13 4 2 33 -25
28 -28 50 -51 48 -53z m6945 -45 c1 -62 0 -115 -1 -118 -1 -3 -3 -70 -6 -150
-2 -80 -6 -157 -8 -172 -2 -16 -1 -28 3 -28 4 0 7 -9 7 -19 0 -11 -4 -17 -8
-15 -4 3 -8 -6 -8 -19 0 -13 -8 -32 -19 -41 -18 -17 -19 -11 -15 236 5 325 10
422 25 449 20 38 29 1 30 -123z m-6603 120 c-2 -6 -10 -13 -16 -14 -7 -1 -8 0
-2 3 5 2 8 9 4 14 -3 5 0 9 6 9 7 0 10 -5 8 -12z m6952 6 c0 -8 -19 -13 -24
-6 -3 5 1 9 9 9 8 0 15 -2 15 -3z m70 -9 c0 -2 -9 -3 -19 -2 -11 0 -18 5 -15
9 4 6 34 0 34 -7z m-7160 -10 c0 -7 -30 -13 -34 -7 -3 4 4 9 15 9 10 1 19 0
19 -2z m6964 -12 c-5 -5 -11 -11 -14 -14 -3 -4 -11 -1 -18 7 -11 12 -8 14 14
14 15 0 23 -3 18 -7z m-6904 -19 c0 -8 -5 -12 -10 -9 -6 4 -8 11 -5 16 9 14
15 11 15 -7z m63 1 c-3 -9 -8 -14 -10 -11 -3 3 -2 9 2 15 9 16 15 13 8 -4z
m95 -29 c-1 -19 -5 -33 -8 -31 -3 2 -5 16 -4 32 3 34 3 33 9 33 3 0 5 -15 3
-34z m-218 9 c0 -2 -9 -3 -19 -2 -11 0 -18 5 -15 9 4 6 34 0 34 -7z m6945 -7
c6 -4 2 -8 -7 -8 -10 0 -18 7 -18 17 0 9 3 12 8 7 4 -5 12 -12 17 -16z m109
13 c3 -5 -2 -15 -12 -22 -15 -12 -16 -12 -5 2 7 9 10 19 6 22 -3 4 -4 7 0 7 3
0 8 -4 11 -9z m146 -16 c0 -7 -7 -16 -16 -19 -14 -5 -15 -4 -5 8 7 8 9 21 5
27 -4 8 -3 9 4 5 7 -4 12 -13 12 -21z m-6790 -5 c0 -5 -5 -10 -11 -10 -5 0 -7
5 -4 10 3 6 8 10 11 10 2 0 4 -4 4 -10z m-670 -16 c0 -8 -19 -13 -24 -6 -3 5
1 9 9 9 8 0 15 -2 15 -3z m7197 -10 c0 -7 -6 -15 -13 -18 -8 -3 -12 2 -11 13
1 20 24 25 24 5z m158 7 c-9 -8 -36 -10 -30 -2 2 4 11 8 20 8 8 0 13 -3 10 -6z
m-7157 -26 c-3 -3 -9 2 -12 12 -6 14 -5 15 5 6 7 -7 10 -15 7 -18z m149 3 c-3
-8 -6 -5 -6 6 -1 11 2 17 5 13 3 -3 4 -12 1 -19z m-312 2 c3 -5 1 -10 -4 -10
-6 0 -11 5 -11 10 0 6 2 10 4 10 3 0 8 -4 11 -10z m408 -15 c-3 -9 -8 -14 -10
-11 -3 3 -2 9 2 15 9 16 15 13 8 -4z m43 -19 c-7 -24 -14 -32 -22 -25 -6 5
-15 5 -19 1 -5 -4 4 7 21 25 16 18 29 32 30 33 1 0 -4 -15 -10 -34z m-169
-101 c17 -34 14 -31 -50 46 -26 31 -47 59 -47 63 0 13 81 -78 97 -109z m6816
100 c-3 -9 -8 -14 -10 -11 -3 3 -2 9 2 15 9 16 15 13 8 -4z m277 0 c-7 -8 -17
-15 -23 -15 -6 0 -2 7 9 15 25 19 30 19 14 0z m-473 -10 c0 -8 -4 -12 -9 -9
-5 3 -6 10 -3 15 9 13 12 11 12 -6z m-6599 -33 c23 -19 25 -24 12 -32 -21 -13
-21 -13 -52 24 -24 29 -25 32 -7 31 10 -1 31 -11 47 -23z m6799 3 c0 -8 -6
-15 -13 -15 -8 0 -11 6 -8 15 4 8 9 15 13 15 4 0 8 -7 8 -15z m-6717 -3 c0 -4
-9 -8 -20 -9 -11 -1 -20 2 -20 5 0 4 9 8 20 9 11 1 20 -2 20 -5z m227 -11 c-6
-26 27 -79 58 -91 31 -12 31 -15 1 -15 -13 0 -22 3 -20 6 2 4 -3 13 -12 20
-22 18 -41 61 -37 82 3 9 7 17 10 17 3 0 3 -9 0 -19z m-152 -11 c-3 -5 -12
-10 -18 -10 -7 0 -6 4 3 10 19 12 23 12 15 0z m6761 -2 c4 4 2 -1 -5 -10 -11
-15 -11 -18 0 -18 11 -1 11 -3 -1 -9 -8 -5 -18 -8 -21 -8 -3 1 -13 -4 -22 -11
-10 -9 -17 -10 -22 -2 -4 6 -3 9 2 8 4 -1 18 6 30 17 18 15 20 22 10 34 -10
14 -10 14 4 4 9 -7 20 -9 25 -5z m-113 -28 c-3 -10 -12 -21 -20 -24 -9 -4 -11
-2 -6 7 4 6 6 20 5 29 -2 12 2 16 11 12 9 -3 13 -13 10 -24z m-6877 10 c15 0
50 -47 42 -56 -3 -3 -12 1 -19 8 -8 7 -27 24 -44 37 -16 13 -22 21 -12 18 10
-4 25 -7 33 -7z m7084 -12 c0 -18 -2 -20 -9 -8 -6 8 -7 18 -5 22 9 14 14 9 14
-14z m-6753 -3 c0 -8 -4 -12 -9 -9 -5 3 -6 10 -3 15 9 13 12 11 12 -6z m6340
-9 c0 -8 -6 -12 -15 -9 -11 5 -11 7 0 14 7 5 13 9 14 9 0 0 1 -6 1 -14z
m-6399 -35 c-10 -14 -18 -17 -28 -10 -12 7 -12 9 3 9 10 0 20 7 24 15 3 9 8
14 10 11 3 -3 -1 -14 -9 -25z m117 9 c10 -11 16 -20 13 -20 -3 0 -13 9 -23 20
-10 11 -16 20 -13 20 3 0 13 -9 23 -20z m6679 11 c4 -5 -3 -7 -14 -4 -23 6
-26 13 -6 13 8 0 17 -4 20 -9z m-206 -36 c-5 -12 -16 -22 -23 -22 -8 0 -11 5
-7 11 4 6 7 14 8 19 3 13 4 14 18 14 11 0 12 -5 4 -22z m-6671 -1 c-3 -4 0
-18 7 -33 16 -29 19 -101 5 -101 -15 0 -39 46 -44 85 -6 42 -1 55 22 55 9 0
14 -3 10 -6z m134 -3 c6 10 8 8 7 -7 -2 -18 -5 -20 -19 -11 -10 6 -15 16 -12
21 4 6 8 5 11 -3 4 -11 6 -11 13 0z m163 -3 c-5 -8 -2 -9 10 -5 10 4 15 3 11
-3 -3 -6 -1 -10 6 -10 7 0 10 -3 7 -6 -10 -9 -49 16 -43 27 4 5 8 9 11 9 3 0
2 -5 -2 -12z m61 -20 c-7 -32 -13 -32 -11 1 0 16 4 27 8 25 4 -2 5 -14 3 -26z
m6117 10 c-7 -7 -12 -8 -12 -2 0 14 12 26 19 19 2 -3 -1 -11 -7 -17z m339 -15
c-10 -17 -10 -16 -11 3 0 23 13 41 18 25 2 -6 -1 -18 -7 -28z m-50 10 c-6 -10
-15 -25 -21 -33 -9 -12 -10 -10 -4 10 4 14 12 28 18 32 17 11 18 10 7 -9z
m-6723 -38 c-2 -12 -7 -7 -15 16 -12 30 -11 32 3 17 9 -8 14 -23 12 -33z m202
41 c0 -3 -4 -8 -10 -11 -5 -3 -10 -1 -10 4 0 6 5 11 10 11 6 0 10 -2 10 -4z
m35 -14 c-3 -3 -11 0 -18 7 -9 10 -8 11 6 5 10 -3 15 -9 12 -12z m-358 -7 c0
-8 -4 -15 -9 -15 -10 0 -11 14 -1 23 9 10 10 9 10 -8z m480 0 c0 -8 -4 -12 -9
-9 -5 3 -6 10 -3 15 9 13 12 11 12 -6z m-522 -15 c10 -11 16 -20 13 -20 -3 0
-13 9 -23 20 -10 11 -16 20 -13 20 3 0 13 -9 23 -20z m372 5 c0 -8 -4 -12 -9
-9 -5 3 -6 10 -3 15 9 13 12 11 12 -6z m6233 -17 c0 -19 -16 -5 -17 14 -2 18
0 20 7 8 5 -8 10 -18 10 -22z m299 -26 c-5 -24 -6 -49 -3 -55 4 -7 3 -9 -1 -4
-5 4 -15 -7 -22 -25 -11 -25 -11 -33 -1 -41 9 -6 8 -7 -4 -3 -12 3 -18 -2 -21
-17 -4 -19 -4 -18 -6 4 0 15 6 42 14 61 11 27 11 38 2 48 -9 10 -9 11 1 6 7
-4 14 0 18 11 9 27 27 63 30 60 2 -1 -1 -22 -7 -45z m-6559 34 c0 -3 -4 -8
-10 -11 -5 -3 -10 -1 -10 4 0 6 5 11 10 11 6 0 10 -2 10 -4z m205 -6 c4 -6 3
-10 -2 -9 -21 4 -34 -2 -27 -13 5 -7 3 -8 -6 -3 -10 6 -9 11 5 22 22 16 22 16
30 3z m-268 -25 c0 -8 -4 -12 -9 -9 -5 3 -6 10 -3 15 9 13 12 11 12 -6z m6498
-11 c0 -12 -3 -20 -7 -17 -5 2 -8 -1 -8 -6 0 -6 -4 -11 -8 -11 -5 0 -7 13 -4
28 5 34 27 39 27 6z m-6315 2 c0 -3 -4 -8 -10 -11 -5 -3 -10 -1 -10 4 0 6 5
11 10 11 6 0 10 -2 10 -4z m201 -13 c12 -16 12 -17 -1 -7 -8 6 -22 14 -30 17
-13 5 -12 6 1 6 9 1 23 -7 30 -16z m-581 -13 c6 -11 8 -20 6 -20 -3 0 -10 9
-16 20 -6 11 -8 20 -6 20 3 0 10 -9 16 -20z m195 -2 c14 -6 25 -15 25 -20 0
-4 6 -8 14 -8 7 0 53 -20 102 -43 49 -24 112 -52 139 -63 28 -10 61 -24 75
-31 14 -7 33 -13 42 -13 9 0 20 -5 23 -10 4 -6 11 -8 16 -5 5 4 9 1 9 -5 0 -6
4 -9 8 -6 5 3 21 -2 36 -10 16 -7 35 -14 42 -14 8 0 22 -4 32 -10 22 -12 126
-46 172 -56 43 -10 48 -11 58 -14 4 -1 11 -2 16 -1 4 1 13 -2 20 -7 6 -6 30
-9 53 -8 22 0 39 -2 36 -6 -2 -5 2 -8 9 -9 32 -2 65 -7 93 -13 17 -4 44 -9 60
-12 36 -5 92 -15 120 -20 157 -28 206 -36 240 -40 22 -2 51 -7 65 -10 28 -7
59 -12 110 -18 19 -3 35 -5 35 -6 0 -1 16 -3 35 -6 34 -4 50 -7 115 -18 52
-10 88 -15 140 -21 28 -3 61 -8 75 -11 14 -2 41 -7 60 -9 19 -3 49 -7 65 -10
27 -4 71 -10 160 -20 17 -2 52 -6 78 -10 39 -5 47 -3 41 7 -6 11 -5 11 8 0 9
-7 31 -15 49 -17 48 -6 189 -18 222 -18 15 0 27 -3 27 -6 0 -3 19 -7 43 -8 23
-1 80 -4 127 -8 47 -3 118 -7 157 -8 40 -1 73 -4 73 -7 0 -3 28 -5 63 -5 34 0
67 -2 72 -4 18 -10 35 -9 41 0 4 7 10 7 17 0 7 -5 64 -12 127 -15 63 -3 153
-8 200 -11 217 -12 995 -22 1029 -13 7 1 15 -2 17 -8 3 -6 -26 -11 -81 -12
-47 0 -90 -4 -95 -7 -6 -3 -10 -2 -10 2 0 5 -26 6 -58 3 -50 -5 -313 -5 -442
0 -25 1 -49 1 -55 0 -5 -1 -12 -1 -15 0 -16 6 -67 6 -81 -1 -9 -4 -20 -4 -25
1 -5 4 -70 11 -144 14 -130 5 -192 9 -345 21 -80 6 -204 14 -285 20 -30 2 -79
6 -107 9 -39 5 -53 3 -53 -6 0 -10 -2 -10 -8 -1 -5 7 -37 15 -73 17 -35 3 -89
7 -119 10 -30 3 -89 8 -130 11 -41 3 -100 8 -130 11 -30 3 -82 7 -115 9 -93 6
-248 24 -254 30 -2 3 -11 -1 -20 -7 -9 -7 -12 -8 -8 -3 5 6 -27 15 -80 23
-125 19 -127 19 -141 2 -10 -13 -11 -13 -6 3 3 9 2 17 -4 17 -5 0 -49 7 -98
15 -49 9 -97 14 -106 11 -10 -2 -18 -1 -18 3 0 4 -6 8 -12 8 -7 1 -31 4 -53 8
-22 4 -53 9 -70 10 -16 2 -43 6 -60 9 -55 11 -100 19 -120 22 -11 1 -63 10
-115 19 -52 9 -108 18 -125 21 -35 6 -191 34 -220 40 -11 2 -31 6 -45 9 -14 3
-41 8 -60 11 -19 3 -53 10 -75 16 -22 6 -44 11 -50 13 -5 1 -17 5 -25 8 -47
20 -160 55 -160 49 0 -4 -4 -2 -8 3 -4 6 -41 21 -82 34 -41 14 -79 28 -85 33
-5 4 -16 8 -25 8 -8 0 -28 7 -44 15 -16 9 -37 13 -45 10 -8 -3 -12 -3 -8 1 3
4 -17 18 -46 31 -70 33 -87 50 -87 90 0 37 0 37 35 21z m-84 -25 c12 -16 12
-17 -2 -6 -9 7 -20 9 -24 5 -5 -4 -5 -1 -1 6 9 16 11 15 27 -5z m234 7 c3 -6
-1 -7 -9 -4 -18 7 -21 14 -7 14 6 0 13 -4 16 -10z m320 0 c3 -6 -1 -7 -9 -4
-18 7 -21 14 -7 14 6 0 13 -4 16 -10z m-598 -6 c-3 -3 -12 -4 -19 -1 -8 3 -5
6 6 6 11 1 17 -2 13 -5z m323 -14 c8 -5 11 -10 5 -10 -5 0 -17 5 -25 10 -8 5
-10 10 -5 10 6 0 17 -5 25 -10z m315 -8 c-3 -3 -11 0 -18 7 -9 10 -8 11 6 5
10 -3 15 -9 12 -12z m5989 2 c3 -8 2 -12 -4 -9 -6 3 -10 10 -10 16 0 14 7 11
14 -7z m-6604 -4 c0 -5 -8 -10 -17 -10 -15 0 -16 2 -3 10 19 12 20 12 20 0z
m343 -5 c-3 -9 -8 -14 -10 -11 -3 3 -2 9 2 15 9 16 15 13 8 -4z m144 0 c0 -8
-4 -12 -9 -9 -5 3 -6 10 -3 15 9 13 12 11 12 -6z m-594 -15 c-3 -11 -7 -20 -9
-20 -2 0 -4 9 -4 20 0 11 4 20 9 20 5 0 7 -9 4 -20z m133 -15 c-3 -9 -12 -12
-21 -9 -14 6 -14 9 2 26 18 20 30 10 19 -17z m6742 10 c-3 -3 -9 2 -12 12 -6
14 -5 15 5 6 7 -7 10 -15 7 -18z m-6333 -5 c3 -6 -1 -7 -9 -4 -18 7 -21 14 -7
14 6 0 13 -4 16 -10z m5849 -6 c3 -8 2 -12 -4 -9 -6 3 -10 10 -10 16 0 14 7
11 14 -7z m-6219 -14 c16 -17 16 -20 3 -15 -9 4 -19 13 -22 21 -7 19 -2 18 19
-6z m-74 -15 c11 6 12 5 2 -5 -10 -11 -15 -11 -28 0 -8 7 -15 17 -15 23 0 6 6
3 13 -8 9 -11 19 -15 28 -10z m114 7 c-3 -3 -11 0 -18 7 -9 10 -8 11 6 5 10
-3 15 -9 12 -12z m410 8 c-3 -5 -12 -10 -18 -10 -7 0 -6 4 3 10 19 12 23 12
15 0z m5908 -15 c-7 -21 -12 -19 -10 4 0 11 5 18 9 15 4 -3 5 -11 1 -19z
m-6513 11 c0 -3 -4 -8 -10 -11 -5 -3 -10 -1 -10 4 0 6 5 11 10 11 6 0 10 -2
10 -4z m24 -26 c-22 -9 -29 -6 -20 9 4 6 14 7 23 4 15 -6 14 -7 -3 -13z m781
10 c-3 -5 -12 -10 -18 -10 -7 0 -6 4 3 10 19 12 23 12 15 0z m40 0 c-3 -5 -12
-10 -18 -10 -7 0 -6 4 3 10 19 12 23 12 15 0z m5588 -5 c4 -8 3 -16 -1 -19 -4
-3 -9 4 -9 15 -2 23 3 25 10 4z m207 5 c0 -5 -5 -10 -11 -10 -5 0 -7 5 -4 10
3 6 8 10 11 10 2 0 4 -4 4 -10z m-6505 -10 c3 -5 -1 -10 -9 -10 -9 0 -16 5
-16 10 0 6 4 10 9 10 6 0 13 -4 16 -10z m750 -10 c3 -6 -1 -7 -9 -4 -18 7 -21
14 -7 14 6 0 13 -4 16 -10z m5856 -32 c-19 -22 -24 -17 -16 15 5 20 10 23 19
15 10 -9 9 -16 -3 -30z m79 29 c0 -5 -7 -6 -16 -3 -12 5 -15 2 -10 -11 4 -10
4 -14 0 -10 -4 4 -21 -5 -38 -20 -28 -27 -28 -27 4 13 31 38 60 53 60 31z
m-6760 -12 c0 -8 -2 -15 -4 -15 -2 0 -6 7 -10 15 -3 8 -1 15 4 15 6 0 10 -7
10 -15z m140 5 c0 -5 -2 -10 -4 -10 -3 0 -8 5 -11 10 -3 6 -1 10 4 10 6 0 11
-4 11 -10z m6447 -40 c-2 -22 -8 -45 -15 -52 -9 -9 -10 -6 -6 13 4 13 7 38 8
56 0 17 4 29 8 27 4 -3 6 -22 5 -44z m-6612 -2 c0 -18 4 -36 10 -40 6 -5 6 -8
0 -8 -6 0 -10 -54 -9 -145 1 -80 -2 -145 -6 -145 -28 0 -30 37 -15 285 1 28 3
60 4 73 2 36 17 17 16 -20z m80 32 c-3 -5 -2 -10 4 -10 5 0 12 6 14 13 4 9 6
9 6 0 1 -15 -16 -26 -29 -18 -10 6 -5 25 6 25 3 0 2 -4 -1 -10z m845 0 c0 -5
-2 -10 -4 -10 -3 0 -8 5 -11 10 -3 6 -1 10 4 10 6 0 11 -4 11 -10z m-772 -29
c9 -5 4 -8 -16 -7 -17 1 -28 4 -25 9 6 9 25 9 41 -2z m605 -4 c4 3 7 1 7 -5 0
-17 -16 -15 -31 6 -12 15 -12 16 2 5 9 -7 19 -10 22 -6z m324 -12 c0 -8 -4
-12 -9 -9 -5 3 -6 10 -3 15 9 13 12 11 12 -6z m57 7 c2 -4 -5 -9 -17 -9 -17
-2 -19 0 -7 7 18 12 18 12 24 2z m-1000 -11 c3 -5 -1 -11 -9 -14 -9 -4 -12 -1
-8 9 6 16 10 17 17 5z m661 -9 c-3 -3 -11 0 -18 7 -9 10 -8 11 6 5 10 -3 15
-9 12 -12z m5522 4 c0 -15 -21 -16 -34 -1 -4 4 -3 5 4 1 6 -3 14 -2 18 4 8 14
12 13 12 -4z m354 0 c15 9 10 -13 -6 -26 -20 -17 -26 -10 -18 20 4 14 8 19 11
12 2 -7 8 -10 13 -6z m-6508 -22 c-27 -20 -39 -17 -17 5 10 10 23 16 27 14 5
-3 0 -11 -10 -19z m672 8 c-3 -3 -11 0 -18 7 -9 10 -8 11 6 5 10 -3 15 -9 12
-12z m57 7 c2 -2 1 -3 -1 -2 -2 2 -10 -2 -18 -9 -7 -6 -16 -8 -20 -4 -3 3 -1
6 6 6 7 0 10 4 7 9 -4 5 1 8 9 7 8 -1 16 -4 17 -7z m46 -14 c-3 -3 -9 2 -12
12 -6 14 -5 15 5 6 7 -7 10 -15 7 -18z m302 21 c0 -2 -7 -7 -16 -10 -8 -3 -12
-2 -9 4 6 10 25 14 25 6z m-1159 -23 c13 -16 12 -17 -3 -4 -17 13 -22 21 -14
21 2 0 10 -8 17 -17z m6459 2 c0 -8 -4 -15 -10 -15 -5 0 -7 7 -4 15 4 8 8 15
10 15 2 0 4 -7 4 -15z m-6609 -12 c13 -16 12 -17 -3 -4 -10 7 -18 15 -18 17 0
8 8 3 21 -13z m252 -8 c-3 -9 -8 -14 -10 -11 -3 3 -2 9 2 15 9 16 15 13 8 -4z
m752 -3 c-3 -3 -11 0 -18 7 -9 10 -8 11 6 5 10 -3 15 -9 12 -12z m5746 5 c-6
-8 -7 -18 -3 -22 4 -5 2 -5 -4 -2 -6 4 -19 -2 -29 -13 -14 -16 -20 -17 -27 -8
-11 19 -10 28 5 23 6 -3 23 4 37 15 29 23 37 25 21 7z m-5687 -13 c3 -8 2 -12
-4 -9 -6 3 -10 10 -10 16 0 14 7 11 14 -7z m31 6 c3 -6 -1 -7 -9 -4 -18 7 -21
14 -7 14 6 0 13 -4 16 -10z m5578 -10 c-3 -12 -8 -19 -11 -16 -5 6 5 36 12 36
2 0 2 -9 -1 -20z m-5536 4 c-3 -3 -12 -4 -19 -1 -8 3 -5 6 6 6 11 1 17 -2 13
-5z m5360 -16 c-3 -8 -6 -5 -6 6 -1 11 2 17 5 13 3 -3 4 -12 1 -19z m83 19 c0
-2 -10 -12 -22 -23 l-23 -19 19 23 c18 21 26 27 26 19z m-6195 -25 c-3 -3 -11
0 -18 7 -9 10 -8 11 6 5 10 -3 15 -9 12 -12z m5956 -6 c-6 -8 -10 -19 -9 -26
2 -7 -3 -14 -10 -15 -7 -2 -8 -1 -2 2 5 2 8 9 5 13 -6 10 16 52 24 45 2 -3 -1
-11 -8 -19z m-6055 5 c97 -30 158 -48 184 -54 21 -4 160 -47 190 -57 50 -18
357 -91 440 -105 19 -3 69 -12 110 -20 41 -8 93 -17 115 -20 49 -6 81 -12 103
-19 9 -3 40 -8 67 -12 64 -8 92 -13 180 -28 97 -17 163 -27 195 -31 19 -2 46
-6 60 -9 28 -5 108 -16 160 -22 19 -2 51 -7 70 -10 19 -3 58 -7 85 -10 28 -2
61 -6 75 -9 36 -7 125 -16 200 -20 36 -2 65 -5 65 -6 0 -2 27 -5 120 -14 141
-12 199 -17 257 -20 31 -1 60 -5 65 -7 4 -3 31 -6 58 -8 114 -5 131 -6 143
-14 7 -4 12 -2 12 4 0 6 4 9 8 6 60 -37 1651 -53 2102 -21 193 14 296 23 340
31 14 3 43 7 65 9 22 3 49 7 60 9 19 4 100 18 120 21 6 1 12 3 15 4 6 3 31 8
75 15 17 2 30 5 30 6 0 1 9 3 20 5 23 3 53 10 110 25 22 6 48 13 58 15 42 10
57 17 57 28 0 7 4 7 9 -2 8 -12 12 -12 25 -2 9 8 16 10 16 6 0 -4 6 -3 13 3
23 19 35 -2 34 -63 0 -65 14 -678 18 -815 5 -139 18 -403 31 -605 3 -55 6
-115 7 -132 0 -18 3 -33 6 -33 3 0 6 -26 7 -58 0 -52 5 -113 20 -277 3 -33 6
-68 6 -77 -1 -10 2 -18 6 -18 4 0 8 -38 10 -85 l3 -85 -35 0 c-19 0 -38 -5
-41 -10 -4 -7 -12 -7 -18 -2 -14 10 -188 9 -205 -2 -7 -4 -12 -4 -12 1 0 9
-201 9 -225 -1 -8 -3 -15 -1 -15 5 0 6 -7 6 -19 -1 -14 -7 -22 -7 -26 0 -5 8
-11 8 -20 0 -7 -6 -15 -7 -18 -3 -8 13 -76 7 -94 -8 -12 -10 -15 -10 -9 -1 4
6 4 12 -1 13 -81 6 -113 3 -108 -10 4 -11 3 -12 -10 -1 -12 10 -18 10 -32 -1
-11 -10 -14 -10 -9 -1 6 11 -4 16 -25 14 -53 -7 -79 -8 -79 -3 0 7 -96 5 -116
-3 -8 -3 -14 0 -14 7 0 8 -3 8 -8 1 -7 -10 -68 -11 -78 -1 -3 3 -17 2 -30 -3
-13 -5 -24 -6 -24 -1 0 11 -62 1 -79 -13 -11 -8 -13 -8 -8 1 9 15 -20 21 -55
12 -17 -5 -28 -4 -28 2 0 6 -5 7 -12 3 -7 -4 -24 -8 -38 -8 -14 -1 -31 -5 -38
-9 -8 -6 -12 -4 -10 5 2 7 -4 11 -12 10 -32 -8 -170 -7 -170 0 0 4 -5 8 -11 8
-5 0 -8 -3 -6 -7 3 -5 -23 -8 -56 -7 -34 1 -68 -4 -75 -9 -9 -8 -12 -7 -10 3
2 10 -10 13 -45 12 -27 0 -51 -3 -54 -6 -3 -3 -14 -1 -24 4 -12 7 -20 7 -24 0
-4 -6 -11 -8 -16 -4 -5 3 -17 0 -26 -8 -9 -7 -14 -8 -10 -2 5 8 -12 11 -58 10
-36 -1 -67 3 -70 9 -3 6 -7 5 -11 -2 -3 -7 -12 -9 -21 -6 -12 5 -14 3 -8 -7 6
-10 4 -11 -6 -4 -21 13 -222 20 -291 11 -16 -2 -28 0 -28 5 0 5 -5 6 -12 2
-15 -10 -78 -11 -78 -1 0 4 -9 3 -19 -3 -14 -7 -22 -7 -26 0 -4 6 -11 8 -16 4
-5 -3 -6 -11 -2 -17 5 -9 3 -9 -8 -1 -8 6 -31 11 -51 10 -21 -1 -38 2 -38 7 0
4 -6 5 -12 0 -17 -10 -58 -11 -58 -1 0 4 -11 4 -23 -1 -13 -5 -30 -5 -37 -1
-8 5 -18 6 -24 3 -13 -8 -68 -8 -89 0 -10 4 -17 3 -17 -1 0 -4 -11 -7 -25 -7
-14 0 -25 3 -25 7 0 4 -13 3 -30 -2 -18 -5 -32 -5 -36 1 -3 5 -10 6 -16 3 -16
-10 -78 -12 -84 -2 -3 5 -12 4 -19 -2 -10 -8 -19 -8 -34 -1 -13 7 -22 8 -26 1
-4 -7 -13 -7 -26 0 -13 8 -19 7 -19 0 0 -7 -6 -8 -16 -2 -9 5 -33 6 -54 2 -24
-4 -43 -3 -49 3 -6 6 -11 7 -11 2 0 -10 -127 -11 -137 -2 -3 3 -15 2 -27 -3
-13 -4 -29 -4 -39 1 -11 7 -17 6 -17 -1 0 -6 -5 -8 -11 -4 -17 10 -52 11 -71
2 -11 -5 -18 -5 -18 1 0 7 -8 7 -24 1 -13 -5 -26 -6 -30 -3 -5 5 -100 8 -121
3 -5 -1 -12 -1 -15 0 -18 7 -487 4 -497 -3 -8 -6 -13 -6 -13 0 0 10 -85 11
-95 1 -4 -3 -19 -3 -33 1 -25 6 -52 7 -77 1 -5 -1 -12 -1 -15 0 -19 8 -90 4
-90 -4 0 -7 -3 -8 -8 -1 -10 14 -384 14 -394 0 -5 -7 -8 -7 -8 1 0 13 -218 13
-239 0 -9 -6 -12 -5 -8 0 3 6 -104 10 -286 11 -457 2 -537 4 -531 14 3 5 8 7
12 5 4 -2 7 105 7 237 0 133 4 250 8 260 5 11 3 17 -4 17 -7 0 -8 4 -2 13 5 6
9 101 9 209 -1 109 1 198 4 198 3 0 6 96 8 213 1 116 3 231 5 255 1 23 -1 42
-6 42 -5 0 -4 6 2 14 9 10 9 16 1 21 -8 5 -8 11 1 21 9 11 9 17 0 28 -7 8 -8
17 -3 20 5 3 10 52 10 108 1 57 4 122 6 145 2 27 -1 40 -7 36 -6 -4 -7 -1 -1
8 5 8 9 49 10 91 1 43 4 83 6 90 3 7 2 22 -2 33 -4 11 -3 29 2 39 8 15 7 18
-6 13 -8 -3 -18 -1 -22 5 -4 6 -3 8 4 4 19 -11 24 13 27 120 2 72 -1 104 -9
104 -8 0 -7 3 1 8 14 9 23 192 9 192 -5 0 -3 7 4 15 15 18 18 18 56 6z m6364
-8 c0 -7 7 -13 15 -13 8 0 14 -3 14 -7 -3 -20 2 -24 15 -14 11 10 20 10 36 1
12 -6 29 -9 37 -6 13 5 14 4 3 -9 -7 -8 -18 -15 -25 -15 -7 0 -24 -9 -38 -20
-36 -28 -45 -25 -41 15 1 19 -1 37 -7 40 -5 4 -9 2 -9 -3 0 -11 -60 -35 -68
-28 -2 3 8 17 22 31 27 27 34 41 14 29 -6 -4 -8 -3 -5 3 9 14 37 12 37 -4z
m-225 -21 c-3 -3 -11 0 -18 7 -9 10 -8 11 6 5 10 -3 15 -9 12 -12z m-29 -4 c4
-7 4 -10 -1 -6 -10 10 -37 -11 -30 -22 3 -5 2 -11 -3 -14 -13 -8 -11 26 2 41
14 16 23 16 32 1z m154 -3 c-7 -9 -15 -13 -19 -10 -3 3 1 10 9 15 21 14 24 12
10 -5z m-5796 -13 c3 -5 -1 -9 -9 -9 -8 0 -12 4 -9 9 3 4 7 8 9 8 2 0 6 -4 9
-8z m83 -8 c-3 -3 -12 -4 -19 -1 -8 3 -5 6 6 6 11 1 17 -2 13 -5z m-652 -22
c-3 -3 -11 0 -18 7 -9 10 -8 11 6 5 10 -3 15 -9 12 -12z m690 8 c3 -6 -1 -7
-9 -4 -18 7 -21 14 -7 14 6 0 13 -4 16 -10z m1390 0 c3 -5 1 -10 -4 -10 -6 0
-11 5 -11 10 0 6 2 10 4 10 3 0 8 -4 11 -10z m4075 6 c0 -3 -4 -8 -10 -11 -5
-3 -10 -1 -10 4 0 6 5 11 10 11 6 0 10 -2 10 -4z m100 -7 c0 -4 -11 -6 -25 -6
-13 0 -22 3 -20 8 6 9 45 8 45 -2z m67 -9 c-7 -27 11 -36 29 -14 13 18 14 18
8 -1 -6 -20 -5 -20 10 -1 9 11 16 17 16 13 0 -3 16 1 35 9 43 17 54 13 48 -20
-4 -18 -16 -27 -51 -39 -40 -12 -48 -12 -50 -1 -2 8 -8 14 -13 14 -6 0 -8 -4
-5 -9 3 -5 0 -21 -8 -37 -22 -46 -29 -87 -14 -78 10 6 9 3 -1 -9 -7 -9 -16
-17 -19 -17 -3 0 -2 3 1 6 3 4 2 15 -4 25 -5 11 -6 19 -1 19 5 0 8 11 7 25 -2
14 1 23 6 19 5 -3 9 0 9 5 0 6 -4 11 -9 11 -5 0 -9 23 -9 50 0 28 5 50 10 50
6 0 8 -9 5 -20z m-5483 -6 c3 -8 2 -12 -4 -9 -6 3 -10 10 -10 16 0 14 7 11 14
-7z m1319 1 c-3 -9 -8 -14 -10 -11 -3 3 -2 9 2 15 9 16 15 13 8 -4z m-1273 -1
c0 -8 -19 -13 -24 -6 -3 5 1 9 9 9 8 0 15 -2 15 -3z m5215 -3 c-9 -8 -36 -10
-30 -2 2 4 11 8 20 8 8 0 13 -3 10 -6z m-4555 -21 c0 -5 -2 -10 -4 -10 -3 0
-8 5 -11 10 -3 6 -1 10 4 10 6 0 11 -4 11 -10z m820 -14 c0 -3 -4 -8 -10 -11
-5 -3 -10 -1 -10 4 0 6 5 11 10 11 6 0 10 -2 10 -4z m365 -6 c3 -6 -1 -7 -9
-4 -18 7 -21 14 -7 14 6 0 13 -4 16 -10z m3015 0 c0 -5 -2 -10 -4 -10 -3 0 -8
5 -11 10 -3 6 -1 10 4 10 6 0 11 -4 11 -10z m60 0 c0 -5 -5 -10 -11 -10 -5 0
-7 5 -4 10 3 6 8 10 11 10 2 0 4 -4 4 -10z m275 0 c3 -5 1 -10 -4 -10 -6 0
-11 5 -11 10 0 6 2 10 4 10 3 0 8 -4 11 -10z m215 -1 c0 -11 -29 -19 -34 -10
-3 5 -3 10 -1 13 8 7 35 5 35 -3z m-6283 -21 c-3 -8 -6 -5 -6 6 -1 11 2 17 5
13 3 -3 4 -12 1 -19z m6454 7 c-1 -10 -61 -20 -61 -10 0 7 42 24 53 22 5 -2 8
-7 8 -12z m-4390 -12 c13 -16 12 -17 -3 -4 -10 7 -18 15 -18 17 0 8 8 3 21
-13z m3886 11 c-3 -3 -12 -4 -19 -1 -8 3 -5 6 6 6 11 1 17 -2 13 -5z m306 -15
c21 0 20 -1 -3 -10 -14 -6 -29 -11 -35 -12 -5 -1 -13 -6 -16 -10 -3 -5 -12
-10 -20 -11 -71 -14 -89 -20 -89 -28 0 -5 -6 -8 -12 -7 -23 4 -73 -14 -86 -30
-8 -9 -10 -10 -6 -2 5 10 1 11 -16 6 -17 -6 -21 -3 -18 11 1 9 11 18 21 20 17
2 180 50 207 61 8 3 21 5 28 4 6 -1 12 6 13 16 0 11 3 13 6 6 2 -7 14 -13 26
-14z m-4103 -5 c0 -8 -19 -13 -24 -6 -3 5 1 9 9 9 8 0 15 -2 15 -3z m695 -4
c3 -5 1 -10 -4 -10 -6 0 -11 5 -11 10 0 6 2 10 4 10 3 0 8 -4 11 -10z m3145 0
c0 -5 -5 -10 -11 -10 -5 0 -7 5 -4 10 3 6 8 10 11 10 2 0 4 -4 4 -10z m-220
-14 c0 -2 -7 -7 -16 -10 -8 -3 -12 -2 -9 4 6 10 25 14 25 6z m594 -2 c15 -6
15 -7 1 -18 -9 -6 -17 -21 -18 -33 0 -12 -5 -20 -9 -17 -8 5 0 32 15 52 6 8 6
12 -1 12 -6 0 -16 -8 -21 -17 -12 -20 -14 -13 -5 11 7 17 14 19 38 10z m-3794
-18 c0 -3 -4 -8 -10 -11 -5 -3 -10 -1 -10 4 0 6 5 11 10 11 6 0 10 -2 10 -4z
m3843 -16 c3 -11 1 -23 -4 -26 -5 -3 -9 6 -9 20 0 31 6 34 13 6z m-1364 -34
c-3 -3 -11 5 -18 17 -13 21 -12 21 5 5 10 -10 16 -20 13 -22z m581 24 c0 -5
-2 -10 -4 -10 -3 0 -8 5 -11 10 -3 6 -1 10 4 10 6 0 11 -4 11 -10z m220 4 c0
-8 -19 -13 -24 -6 -3 5 1 9 9 9 8 0 15 -2 15 -3z m-2339 -21 c13 -16 12 -17
-3 -4 -10 7 -18 15 -18 17 0 8 8 3 21 -13z m-3674 -40 c-3 -10 -5 -2 -5 17 0
19 2 27 5 18 2 -10 2 -26 0 -35z m113 37 c0 -5 -2 -10 -4 -10 -3 0 -8 5 -11
10 -3 6 -1 10 4 10 6 0 11 -4 11 -10z m4070 6 c0 -11 -19 -15 -25 -6 -3 5 1
10 9 10 9 0 16 -2 16 -4z m40 0 c0 -2 -7 -6 -15 -10 -8 -3 -15 -1 -15 4 0 6 7
10 15 10 8 0 15 -2 15 -4z m40 0 c0 -2 -7 -6 -15 -10 -8 -3 -15 -1 -15 4 0 6
7 10 15 10 8 0 15 -2 15 -4z m40 0 c0 -2 -7 -6 -15 -10 -8 -3 -15 -1 -15 4 0
6 7 10 15 10 8 0 15 -2 15 -4z m50 0 c0 -2 -9 -6 -20 -9 -11 -3 -20 -1 -20 4
0 5 9 9 20 9 11 0 20 -2 20 -4z m180 -6 c0 -5 -2 -10 -4 -10 -3 0 -8 5 -11 10
-3 6 -1 10 4 10 6 0 11 -4 11 -10z m74 -2 c-3 -4 -11 -5 -19 -1 -21 7 -19 12
4 10 11 0 18 -5 15 -9z m66 -3 c0 -2 -9 -3 -19 -2 -11 0 -18 5 -15 9 4 6 34 0
34 -7z m935 6 c3 -5 2 -12 -3 -15 -5 -3 -9 1 -9 9 0 17 3 19 12 6z m815 -1 c0
-5 -4 -10 -9 -10 -6 0 -13 5 -16 10 -3 6 1 10 9 10 9 0 16 -4 16 -10z m130
-52 c0 -45 -3 -59 -10 -48 -7 11 -10 11 -10 2 0 -7 -5 -10 -10 -7 -6 4 -8 11
-4 16 6 10 14 51 17 82 1 9 5 17 9 17 4 0 8 -28 8 -62z m-6520 38 c0 -8 -4
-17 -8 -20 -4 -2 -8 4 -8 15 0 10 4 19 8 19 4 0 8 -6 8 -14z m2084 -8 c-3 -4
-9 -8 -15 -8 -5 0 -9 4 -9 8 0 5 7 9 15 9 8 0 12 -4 9 -9z m1300 4 c2 -4 -4
-8 -14 -8 -10 0 -16 4 -14 8 3 4 9 8 14 8 5 0 11 -4 14 -8z m3080 0 c3 -5 -1
-9 -9 -9 -8 0 -12 4 -9 9 3 4 7 8 9 8 2 0 6 -4 9 -8z m80 -7 c-4 -8 -8 -15
-10 -15 -2 0 -4 7 -4 15 0 8 4 15 10 15 5 0 7 -7 4 -15z m-547 -10 c0 -8 -4
-12 -9 -9 -4 3 -8 9 -8 15 0 5 4 9 8 9 5 0 9 -7 9 -15z m89 1 c18 5 18 5 0 -6
-15 -10 -21 -9 -35 6 -14 16 -14 17 0 6 9 -7 25 -10 35 -6z m-6001 -16 c-12
-13 -12 -19 -2 -30 10 -12 9 -12 -6 -1 -12 10 -14 17 -7 26 5 6 8 14 5 17 -3
2 2 5 10 5 13 0 13 -2 0 -17z m5860 10 c-3 -4 -17 -10 -32 -13 -16 -3 -41 -8
-58 -11 -65 -13 -105 -20 -178 -30 -21 -3 -41 -8 -46 -10 -5 -3 -11 3 -14 13
-3 15 -1 18 11 14 8 -4 13 -2 10 3 -4 5 18 9 49 8 53 0 199 19 207 27 8 8 56
7 51 -1z m409 -6 c3 -8 2 -12 -4 -9 -6 3 -10 10 -10 16 0 14 7 11 14 -7z
m-6357 -19 c0 -8 -4 -12 -9 -9 -4 3 -8 9 -8 15 0 5 4 9 8 9 5 0 9 -7 9 -15z
m6050 9 c-8 -8 -48 -13 -43 -6 2 4 14 8 26 9 12 1 20 0 17 -3z m-97 -26 c-12
-5 -25 -6 -28 -3 -3 3 0 5 7 5 7 0 10 4 7 9 -4 5 4 7 16 3 l22 -5 -24 -9z
m-1196 -18 c-6 -6 -10 -3 -10 10 0 13 4 16 10 10 7 -7 7 -13 0 -20z m1789 15
c-3 -9 -8 -14 -10 -11 -3 3 -2 9 2 15 9 16 15 13 8 -4z m-6543 -9 c0 -3 -4 -8
-10 -11 -5 -3 -10 -1 -10 4 0 6 5 11 10 11 6 0 10 -2 10 -4z m2480 0 c0 -3 -4
-8 -10 -11 -5 -3 -10 -1 -10 4 0 6 5 11 10 11 6 0 10 -2 10 -4z m3340 -2 c0
-8 -19 -13 -24 -6 -3 5 1 9 9 9 8 0 15 -2 15 -3z m620 2 c0 -3 -4 -8 -10 -11
-5 -3 -10 -1 -10 4 0 6 5 11 10 11 6 0 10 -2 10 -4z m-6444 -41 c-1 -8 -5 -17
-8 -21 -5 -4 -4 16 1 34 3 9 9 -1 7 -13z m81 0 c0 -8 -4 -12 -9 -9 -5 3 -6 10
-3 15 9 13 12 11 12 -6z m38 6 c3 -5 2 -12 -3 -15 -5 -3 -9 1 -9 9 0 17 3 19
12 6z m5049 1 c2 -4 -5 -9 -17 -9 -17 -2 -19 0 -7 7 18 12 18 12 24 2z m-171
-13 c-10 -10 -133 -17 -133 -8 0 10 24 14 88 15 29 0 49 -3 45 -7z m63 4 c-10
-10 -46 -11 -46 -1 0 4 12 8 27 8 14 0 23 -3 19 -7z m64 3 c0 -7 -40 -14 -44
-7 -3 4 6 8 20 9 13 1 24 0 24 -2z m1389 -23 c-1 -5 -1 -10 1 -13 6 -16 4
-270 -2 -270 -8 0 -9 19 -9 180 0 114 -1 110 6 110 3 0 4 -3 4 -7z m-6514 -22
c3 -5 2 -12 -3 -15 -5 -3 -9 1 -9 9 0 17 3 19 12 6z m3920 -9 c-3 -3 -11 0
-18 7 -9 10 -8 11 6 5 10 -3 15 -9 12 -12z m239 -10 c2 -4 -5 -9 -17 -9 -17
-2 -19 0 -7 7 18 12 18 12 24 2z m120 0 c3 -5 -1 -9 -9 -9 -8 0 -12 4 -9 9 3
4 7 8 9 8 2 0 6 -4 9 -8z m-54 -8 c0 -8 -19 -13 -24 -6 -3 5 1 9 9 9 8 0 15
-2 15 -3z m97 0 c-3 -3 -12 -4 -19 -1 -8 3 -5 6 6 6 11 1 17 -2 13 -5z m46 -1
c-7 -2 -19 -2 -25 0 -7 3 -2 5 12 5 14 0 19 -2 13 -5z m77 3 c0 -3 -4 -8 -10
-11 -5 -3 -10 -1 -10 4 0 6 5 11 10 11 6 0 10 -2 10 -4z m1953 -11 c-3 -9 -8
-14 -10 -11 -3 3 -2 9 2 15 9 16 15 13 8 -4z m-6398 -45 c1 -10 -2 -17 -6 -14
-4 2 -7 13 -6 24 2 23 10 17 12 -10z m120 1 c3 -5 2 -12 -3 -15 -5 -3 -9 1 -9
9 0 17 3 19 12 6z m-121 -47 c3 -8 2 -12 -4 -9 -6 3 -10 10 -10 16 0 14 7 11
14 -7z m6426 -8 c0 -3 -4 -8 -10 -11 -5 -3 -10 -1 -10 4 0 6 5 11 10 11 6 0
10 -2 10 -4z m-6426 -32 c3 -8 2 -12 -4 -9 -6 3 -10 10 -10 16 0 14 7 11 14
-7z m6401 -74 c3 -5 1 -10 -4 -10 -6 0 -11 5 -11 10 0 6 2 10 4 10 3 0 8 -4
11 -10z m122 -166 c1 -75 -1 -134 -4 -130 -9 9 -15 266 -6 266 4 0 9 -61 10
-136z m-6427 -50 c0 -8 -19 -13 -24 -6 -3 5 1 9 9 9 8 0 15 -2 15 -3z m6366
-46 c3 -4 -1 -5 -10 -4 -8 1 -18 5 -22 8 -3 4 1 5 10 4 8 -1 18 -5 22 -8z m66
-78 c-5 -36 -9 -35 -16 3 -3 18 0 27 8 27 8 0 11 -10 8 -30z m-6452 4 c0 -8
-19 -13 -24 -6 -3 5 1 9 9 9 8 0 15 -2 15 -3z m6370 2 c0 -3 -4 -8 -10 -11 -5
-3 -10 -1 -10 4 0 6 5 11 10 11 6 0 10 -2 10 -4z m82 -90 c-6 -48 -12 -46 -12
5 0 22 4 38 8 35 4 -3 6 -21 4 -40z m-6548 5 c3 -5 -2 -15 -12 -22 -15 -12
-16 -12 -5 2 7 9 10 19 6 22 -3 4 -4 7 0 7 3 0 8 -4 11 -9z m79 -16 c-3 -9 -8
-14 -10 -11 -3 3 -2 9 2 15 9 16 15 13 8 -4z m6473 -70 c0 -19 -3 -35 -6 -35
-4 0 -7 16 -7 35 0 19 3 35 7 35 3 0 6 -16 6 -35z m-6445 -32 c13 -16 12 -17
-3 -4 -10 7 -18 15 -18 17 0 8 8 3 21 -13z m-118 -28 c-3 -9 -8 -14 -10 -11
-3 3 -2 9 2 15 9 16 15 13 8 -4z m6567 5 c0 -5 -5 -10 -11 -10 -5 0 -7 5 -4
10 3 6 8 10 11 10 2 0 4 -4 4 -10z m-1 -106 c-1 -41 -4 -72 -6 -70 -9 8 -8
154 0 149 4 -3 7 -38 6 -79z m-69 52 c0 -3 -4 -8 -10 -11 -5 -3 -10 -1 -10 4
0 6 5 11 10 11 6 0 10 -2 10 -4z m-6503 -38 c-3 -7 -5 -2 -5 12 0 14 2 19 5
13 2 -7 2 -19 0 -25z m6 -33 c4 -8 3 -16 -1 -19 -4 -3 -9 4 -9 15 -2 23 3 25
10 4z m-5 -60 c-3 -3 -9 2 -12 12 -6 14 -5 15 5 6 7 -7 10 -15 7 -18z m6578
-80 c0 -41 -1 -73 -4 -70 -8 7 -11 145 -4 145 4 0 7 -34 8 -75z m-6571 56 c3
-5 2 -12 -3 -15 -5 -3 -9 1 -9 9 0 17 3 19 12 6z m-5 -71 c0 -5 -2 -10 -4 -10
-3 0 -8 5 -11 10 -3 6 -1 10 4 10 6 0 11 -4 11 -10z m-3 -75 c-1 -30 -4 -55
-8 -55 -3 0 -5 19 -3 43 1 23 3 48 3 55 1 6 3 12 5 12 2 0 3 -25 3 -55z m6524
38 c13 -16 12 -17 -3 -4 -10 7 -18 15 -18 17 0 8 8 3 21 -13z m61 -88 c1 -30
0 -55 -4 -55 -5 0 -8 17 -9 38 0 20 -2 45 -4 55 -2 9 0 17 5 17 4 0 10 -25 12
-55z m-6585 -30 c0 -8 -4 -15 -9 -15 -10 0 -11 14 -1 23 9 10 10 9 10 -8z m80
-20 c0 -8 -4 -12 -9 -9 -5 3 -6 10 -3 15 9 13 12 11 12 -6z m6511 -40 c0 -13
-4 -22 -9 -20 -9 6 -8 45 2 45 4 0 7 -11 7 -25z m-6594 -66 c-5 -73 -12 -72
-12 0 1 33 4 58 8 56 4 -3 6 -28 4 -56z m83 36 c0 -8 -4 -12 -9 -9 -5 3 -6 10
-3 15 9 13 12 11 12 -6z m6513 -15 c0 -5 -4 -10 -10 -10 -5 0 -10 5 -10 10 0
6 5 10 10 10 6 0 10 -4 10 -10z m-10 -30 c-13 -8 -12 -10 3 -10 10 0 15 -5 12
-10 -5 -8 -11 -7 -21 1 -15 12 -10 29 9 29 7 0 6 -4 -3 -10z m18 -101 c1 -34
5 -66 9 -72 3 -5 7 -39 9 -76 2 -62 9 -144 19 -253 3 -26 9 -58 15 -73 12 -33
13 -58 1 -51 -13 8 -24 72 -35 201 -3 39 -8 81 -11 94 -2 13 -5 50 -6 82 -1
32 -5 56 -9 54 -3 -2 -4 9 -2 26 2 16 -1 35 -7 43 -7 8 -8 17 -3 20 5 3 7 19
4 36 -2 16 0 30 5 30 4 0 10 -28 11 -61z m-6518 31 c0 -5 -2 -10 -4 -10 -3 0
-8 5 -11 10 -3 6 -1 10 4 10 6 0 11 -4 11 -10z m6461 -3 c-6 -8 -7 -18 -3 -22
4 -5 2 -5 -5 -1 -14 8 -6 36 9 36 7 0 6 -5 -1 -13z m-6549 -37 c-2 -16 -6 -30
-8 -30 -2 0 -4 14 -4 30 0 17 4 30 8 30 5 0 7 -13 4 -30z m-5 -82 c-3 -8 -6
-5 -6 6 -1 11 2 17 5 13 3 -3 4 -12 1 -19z m6557 4 c3 -5 -1 -9 -9 -9 -8 0
-12 4 -9 9 3 4 7 8 9 8 2 0 6 -4 9 -8z m-6554 -37 c0 -8 -4 -15 -8 -15 -5 0
-9 7 -9 15 0 8 4 15 9 15 4 0 8 -7 8 -15z m-3 -64 c0 -11 -5 -18 -9 -15 -4 3
-5 11 -1 19 7 21 12 19 10 -4z m5 -38 c-10 -4 -10 -8 0 -21 10 -12 10 -14 1
-8 -14 8 -18 -6 -6 -18 14 -14 11 -35 -4 -29 -11 4 -11 8 -3 13 8 5 8 10 2 14
-17 10 -11 56 7 55 11 0 12 -2 3 -6z m0 -117 c7 4 8 2 4 -4 -13 -21 -26 -13
-25 16 2 23 2 24 6 4 3 -13 9 -19 15 -16z m1 -79 c7 4 5 -2 -3 -13 -8 -10 -15
-20 -16 -22 0 -1 -1 19 -1 45 0 33 1 38 4 15 3 -22 8 -30 16 -25z m67 -1 c0
-3 -4 -8 -10 -11 -5 -3 -10 -1 -10 4 0 6 5 11 10 11 6 0 10 -2 10 -4z m6620
-56 c0 -5 -2 -10 -4 -10 -3 0 -8 5 -11 10 -3 6 -1 10 4 10 6 0 11 -4 11 -10z
m-6683 -15 c0 -8 -4 -12 -9 -9 -5 3 -6 10 -3 15 9 13 12 11 12 -6z m-1 -27 c5
4 5 3 1 -2 -12 -15 -34 -15 -34 0 0 9 4 11 12 4 7 -5 16 -6 21 -2z m49 -28
c-3 -5 -12 -10 -18 -10 -7 0 -6 4 3 10 19 12 23 12 15 0z m-78 -32 c-3 -7 -5
-2 -5 12 0 14 2 19 5 13 2 -7 2 -19 0 -25z m6712 0 c0 -51 14 -114 29 -125 20
-16 11 -17 -23 -1 -14 6 -26 18 -26 27 -3 44 -10 85 -14 89 -6 7 15 32 26 32
5 0 9 -10 8 -22z m-6634 2 c-3 -5 -12 -10 -18 -10 -7 0 -6 4 3 10 19 12 23 12
15 0z m-45 -75 c0 -5 -5 -3 -10 5 -5 8 -10 20 -10 25 0 6 5 3 10 -5 5 -8 10
-19 10 -25z m47 -7 c-3 -8 -6 -5 -6 6 -1 11 2 17 5 13 3 -3 4 -12 1 -19z m-74
-5 c-3 -7 -9 -10 -14 -7 -14 8 -11 21 5 21 8 0 12 -6 9 -14z m52 -3 c-3 -5
-11 -10 -16 -10 -6 0 -7 5 -4 10 3 6 11 10 16 10 6 0 7 -4 4 -10z m6475 -20
c0 -5 -5 -10 -11 -10 -5 0 -7 5 -4 10 3 6 8 10 11 10 2 0 4 -4 4 -10z m-6560
-20 c0 -5 -4 -10 -10 -10 -5 0 -10 5 -10 10 0 6 5 10 10 10 6 0 10 -4 10 -10z
m138 -29 c-15 -5 -19 4 -11 24 6 18 7 18 13 -1 4 -10 3 -21 -2 -23z m159 33
c-3 -3 -12 -4 -19 -1 -8 3 -5 6 6 6 11 1 17 -2 13 -5z m73 -4 c-18 -12 -30
-13 -30 -2 0 4 10 9 22 9 18 2 20 0 8 -7z m56 -2 c3 -4 -1 -5 -10 -4 -8 1 -18
5 -22 8 -3 4 1 5 10 4 8 -1 18 -5 22 -8z m48 0 c-3 -4 -11 -5 -19 -1 -21 7
-19 12 4 10 11 0 18 -5 15 -9z m60 3 c3 -4 -2 -16 -12 -24 -16 -15 -18 -15
-19 6 -2 17 0 19 7 7 9 -14 14 -7 11 13 -1 10 7 9 13 -2z m341 -1 c3 -5 1 -10
-4 -10 -6 0 -11 5 -11 10 0 6 2 10 4 10 3 0 8 -4 11 -10z m100 0 c3 -5 1 -10
-4 -10 -6 0 -11 5 -11 10 0 6 2 10 4 10 3 0 8 -4 11 -10z m118 -5 c-3 -9 -8
-14 -10 -11 -3 3 -2 9 2 15 9 16 15 13 8 -4z m142 -3 c-3 -3 -11 0 -18 7 -9
10 -8 11 6 5 10 -3 15 -9 12 -12z m3930 8 c3 -6 -1 -7 -9 -4 -18 7 -21 14 -7
14 6 0 13 -4 16 -10z m90 1 c-9 -8 -36 -10 -30 -2 2 4 11 8 20 8 8 0 13 -3 10
-6z m625 -1 c0 -5 -2 -10 -4 -10 -3 0 -8 5 -11 10 -3 6 -1 10 4 10 6 0 11 -4
11 -10z m295 1 c3 -5 2 -12 -3 -15 -5 -3 -9 1 -9 9 0 17 3 19 12 6z m309 -6
c-4 -8 -11 -12 -16 -9 -6 4 -5 10 3 15 19 12 19 11 13 -6z m103 -1 c-2 -2 -25
-5 -50 -7 -53 -3 -50 10 3 15 35 3 55 0 47 -8z m-6412 -4 c3 -6 -1 -7 -9 -4
-18 7 -21 14 -7 14 6 0 13 -4 16 -10z m445 6 c0 -3 -4 -8 -10 -11 -5 -3 -10
-1 -10 4 0 6 5 11 10 11 6 0 10 -2 10 -4z m114 -8 c-3 -4 -11 -5 -19 -1 -21 7
-19 12 4 10 11 0 18 -5 15 -9z m80 0 c-3 -4 -11 -5 -19 -1 -21 7 -19 12 4 10
11 0 18 -5 15 -9z m5557 -6 c-7 -2 -18 1 -23 6 -8 8 -4 9 13 5 13 -4 18 -8 10
-11z m63 9 c3 -4 -6 -6 -19 -3 -14 2 -25 6 -25 8 0 8 39 4 44 -5z m277 -8 c13
-16 12 -17 -3 -4 -10 7 -18 15 -18 17 0 8 8 3 21 -13z m-6736 -13 c3 -5 1 -10
-4 -10 -6 0 -11 5 -11 10 0 6 2 10 4 10 3 0 8 -4 11 -10z m141 -10 c8 0 14 -3
14 -7 0 -5 -20 -8 -43 -8 -28 0 -44 4 -44 12 0 7 4 10 9 7 4 -3 16 -1 25 5 11
6 19 6 21 0 2 -5 10 -9 18 -9z m-104 -11 c-13 -11 -28 -19 -35 -16 -7 2 2 11
18 20 40 22 43 21 17 -4z m223 11 c3 -5 1 -10 -4 -10 -6 0 -11 5 -11 10 0 6 2
10 4 10 3 0 8 -4 11 -10z m43 -15 c-3 -3 -9 2 -12 12 -6 14 -5 15 5 6 7 -7 10
-15 7 -18z m542 15 c0 -5 -2 -10 -4 -10 -3 0 -8 5 -11 10 -3 6 -1 10 4 10 6 0
11 -4 11 -10z m5813 -6 c1 -5 -28 -9 -65 -9 -38 0 -68 2 -68 6 0 4 19 6 43 4
23 -1 51 1 62 5 21 8 26 7 28 -6z m207 11 c0 -2 -10 -10 -22 -16 -21 -11 -22
-11 -9 4 13 16 31 23 31 12z m-6636 -14 c2 -3 -11 -6 -30 -6 -19 0 -34 3 -34
7 0 8 59 7 64 -1z m6101 -9 c-3 -3 -11 0 -18 7 -9 10 -8 11 6 5 10 -3 15 -9
12 -12z m129 10 c3 -5 -1 -9 -9 -9 -8 0 -12 4 -9 9 3 4 7 8 9 8 2 0 6 -4 9 -8z
m50 0 c2 -4 -5 -9 -17 -9 -17 -2 -19 0 -7 7 18 12 18 12 24 2z m-2841 -972 c4
-15 0 -20 -13 -20 -22 0 -34 15 -25 30 10 17 32 11 38 -10z m1392 -221 c4 -5
14 -9 24 -9 29 0 141 -78 207 -144 68 -69 90 -105 100 -164 6 -36 3 -44 -21
-66 -26 -24 -92 -51 -150 -62 -26 -5 -27 -3 -19 23 16 49 9 166 -10 199 -60
101 -147 38 -147 -106 -1 -61 4 -89 21 -120 9 -17 8 -22 -12 -29 -27 -10 -74
2 -100 26 -82 74 -79 345 5 428 32 32 89 45 102 24z m-3488 -38 c95 -50 122
-303 46 -431 -15 -26 -22 -30 -53 -27 -19 2 -34 7 -33 13 1 5 10 29 19 54 10
29 14 64 11 100 -6 67 -13 88 -44 121 -81 87 -165 -100 -108 -238 18 -43 18
-43 3 -38 -7 2 -29 6 -48 9 -106 17 -113 21 -130 72 -17 50 -6 118 30 181 84
148 221 231 307 184z m4157 -1387 c-1 -95 -14 -182 -45 -314 -11 -47 -22 -92
-24 -100 -32 -136 -144 -406 -235 -565 -107 -190 -331 -446 -523 -600 -88 -71
-251 -185 -263 -185 -4 0 -15 -7 -24 -15 -27 -24 -283 -151 -392 -193 -112
-44 -292 -100 -348 -108 -19 -3 -51 -9 -70 -14 -160 -39 -600 -58 -790 -34
-87 11 -167 26 -270 49 -286 63 -587 190 -832 350 -262 171 -584 503 -709 730
-42 74 -149 295 -167 340 -10 28 -23 59 -27 70 -5 11 -9 22 -9 25 -1 3 -8 25
-17 50 -31 86 -74 251 -78 300 -8 96 -12 200 -7 200 7 0 45 -39 86 -89 72 -89
118 -139 236 -256 135 -135 160 -157 259 -236 68 -54 235 -168 265 -182 8 -4
33 -18 55 -32 37 -23 213 -111 295 -148 64 -29 277 -105 340 -123 8 -2 62 -17
120 -34 113 -33 133 -37 195 -46 22 -3 46 -7 53 -9 77 -26 813 -25 972 0 75
12 83 14 130 26 25 6 52 12 60 14 8 2 15 4 15 6 0 1 9 3 20 5 35 5 216 61 319
98 122 45 288 118 380 168 38 21 71 38 73 38 2 0 57 34 121 76 104 68 210 149
311 239 62 54 295 289 338 340 23 28 50 60 60 72 10 11 25 31 33 43 50 73 74
100 84 97 6 -2 11 -24 10 -53z"/>
<path d="M6930 10542 c-8 -2 -22 -6 -30 -8 -8 -3 -17 -5 -20 -6 -15 -1 -96
-69 -176 -149 l-91 -91 -104 -19 c-103 -19 -175 -29 -235 -33 -17 -2 -36 -6
-42 -10 -7 -4 -12 -4 -12 1 0 4 -24 8 -54 8 -30 0 -52 -4 -49 -9 4 -5 1 -6 -6
-2 -6 4 -20 2 -29 -6 -15 -11 -15 -11 -5 2 10 14 3 17 -50 28 -34 6 -101 25
-149 40 -50 17 -88 25 -88 19 0 -6 -6 -4 -12 4 -7 9 -51 28 -98 43 -47 15 -94
31 -105 36 -11 4 -36 13 -55 20 -42 15 -79 29 -102 41 -10 5 -26 9 -36 9 -10
0 -22 4 -27 9 -22 21 -75 19 -118 -3 -138 -75 -198 -115 -305 -207 -12 -10
-27 -19 -32 -19 -6 0 -10 -4 -10 -10 0 -21 -44 -9 -215 60 -37 15 -90 35 -95
36 -3 0 -12 3 -20 7 -16 6 -124 41 -175 57 -35 10 -100 27 -135 34 -14 3 -65
15 -115 26 -49 11 -101 23 -115 25 -14 3 -70 15 -125 27 -156 32 -180 32 -259
-8 -113 -57 -203 -125 -191 -144 2 -4 -5 -16 -18 -26 l-22 -19 19 23 c16 18
16 22 4 22 -9 0 -21 7 -29 16 -7 8 -20 13 -30 11 -11 -3 -16 0 -13 8 6 16 -22
39 -37 29 -7 -4 -9 -3 -5 4 3 6 -1 17 -9 24 -9 7 -26 23 -37 36 -24 25 -50 28
-70 9 -7 -7 -31 -22 -53 -34 -22 -11 -39 -26 -38 -32 2 -5 -3 -8 -10 -5 -7 2
-24 -7 -36 -20 l-24 -25 49 -49 c27 -26 72 -66 99 -88 28 -21 52 -41 55 -45 3
-3 22 -13 42 -22 37 -17 38 -17 75 6 21 13 41 25 46 25 11 2 148 97 180 125
15 13 27 30 27 37 0 12 18 11 90 -6 14 -3 34 -7 45 -9 11 -2 34 -6 50 -10 17
-3 44 -9 60 -12 46 -8 60 -11 63 -13 3 -3 11 -5 62 -14 25 -5 52 -12 60 -16 9
-5 24 -4 34 2 14 8 17 7 12 -1 -8 -12 2 -17 44 -25 43 -9 93 -23 138 -40 25
-9 42 -11 42 -5 0 6 6 4 14 -4 8 -7 49 -26 93 -41 43 -15 92 -32 108 -39 17
-6 33 -11 38 -9 4 1 7 -2 7 -6 0 -5 36 -21 80 -36 86 -30 117 -30 177 2 17 9
51 27 75 39 24 13 83 55 131 95 49 40 99 82 112 92 20 16 27 17 40 6 8 -7 15
-9 15 -6 0 4 9 2 21 -4 11 -6 28 -13 37 -16 16 -3 129 -44 162 -57 24 -10 216
-76 314 -108 115 -37 155 -43 305 -42 93 0 125 4 132 14 6 11 9 11 9 1 0 -8 8
-11 23 -8 19 5 65 11 147 21 49 6 216 54 257 74 23 12 46 21 51 21 4 0 17 9
29 19 11 10 33 26 49 34 16 9 56 41 89 71 33 31 69 56 80 56 11 0 62 -23 114
-50 101 -54 106 -56 95 -38 -4 7 -3 8 4 4 6 -4 9 -13 5 -21 -3 -9 1 -15 11
-15 9 0 16 -4 16 -8 0 -13 61 -55 82 -56 16 -1 242 -215 235 -223 -2 -2 -54
47 -115 109 -61 62 -113 110 -116 107 -6 -6 272 -289 284 -289 22 0 79 36 75
47 -2 8 2 10 12 6 11 -4 14 -2 9 5 -4 7 -2 10 6 7 8 -3 23 4 35 15 12 11 26
20 31 20 24 0 18 41 -11 77 -28 34 -192 198 -257 258 -71 64 -260 188 -260
171 0 -4 -11 1 -25 10 -14 9 -25 13 -25 10 0 -4 -10 -2 -21 5 -21 11 -131 19
-159 11z m20 -42 c-6 -11 -15 -18 -21 -15 -5 4 -9 2 -9 -2 0 -5 -21 -19 -47
-31 -27 -12 -58 -31 -71 -40 -23 -18 -23 -18 16 -14 30 3 39 0 39 -12 0 -8 -3
-14 -6 -13 -3 1 -24 -16 -46 -36 -22 -21 -59 -50 -82 -63 -24 -14 -43 -30 -43
-35 0 -5 -3 -8 -7 -7 -9 1 -46 -13 -53 -21 -20 -23 -146 -65 -155 -52 -2 4 1
8 8 9 26 1 61 12 66 20 6 8 46 32 143 85 21 11 36 22 34 25 -2 2 -14 -1 -25
-8 -12 -6 -21 -9 -22 -8 -6 23 -6 37 1 33 4 -3 24 15 45 40 57 71 106 113 159
140 63 32 91 33 76 5z m-3160 0 c20 -6 21 -8 5 -8 -11 0 -33 4 -50 8 -27 7
-27 8 -5 8 14 0 36 -4 50 -8z m3230 -4 c0 -2 -11 -11 -25 -20 -14 -9 -25 -12
-25 -6 0 6 10 15 23 20 27 11 27 11 27 6z m-3360 -39 c-14 -12 -48 -33 -77
-47 -29 -14 -52 -29 -53 -33 0 -4 9 -3 21 3 11 7 28 9 37 5 22 -8 -83 -105
-150 -137 -26 -12 -48 -26 -48 -30 0 -5 -7 -8 -15 -8 -8 0 -15 -5 -15 -11 0
-5 -4 -8 -9 -4 -5 3 -12 1 -16 -5 -11 -18 -41 -11 -41 9 0 13 4 17 11 11 7 -6
41 8 96 40 77 45 82 50 60 58 -24 8 -24 9 21 53 54 53 78 72 78 63 0 -4 12 3
27 17 14 13 23 18 19 11 -4 -7 9 -1 30 13 43 29 59 24 24 -8z m97 -5 c21 -7
35 -7 39 -1 4 6 10 6 17 1 17 -14 125 -35 143 -28 9 3 12 1 9 -4 -5 -8 30 -14
48 -9 1 0 15 -4 30 -10 15 -6 42 -14 60 -17 45 -8 49 -9 75 -18 14 -5 29 -3
38 5 12 10 15 10 12 -1 -3 -16 75 -42 129 -44 17 -1 29 -4 27 -7 -2 -3 36 -19
84 -34 48 -15 97 -32 109 -37 12 -6 29 -8 37 -5 9 4 15 2 13 -4 -1 -5 32 -22
75 -36 78 -27 88 -40 49 -69 -17 -13 -23 -12 -64 5 -16 6 -33 8 -39 5 -6 -4
-8 -2 -5 3 8 13 -39 27 -55 17 -6 -4 -8 -3 -5 3 7 10 -95 53 -133 56 -11 1
-20 4 -20 7 0 3 -21 12 -47 20 -54 15 -52 14 -73 23 -8 3 -42 13 -75 22 -33 9
-83 22 -112 30 -28 8 -62 16 -75 19 -12 3 -32 7 -43 10 -11 3 -40 10 -65 17
-25 6 -52 13 -60 16 -8 4 -18 5 -22 5 -9 -2 -129 25 -133 30 -1 2 -5 17 -9 33
-4 17 -3 25 1 19 4 -6 23 -16 40 -22z m113 18 c0 -5 -5 -10 -11 -10 -5 0 -7 5
-4 10 3 6 8 10 11 10 2 0 4 -4 4 -10z m1435 -10 c-3 -5 -14 -10 -23 -9 -14 0
-13 2 3 9 27 11 27 11 20 0z m1793 -8 c29 -10 55 -22 60 -26 4 -4 21 -14 37
-21 31 -13 61 -35 128 -95 26 -23 42 -31 44 -22 3 6 9 9 15 6 6 -4 5 -10 -3
-15 -12 -7 -12 -10 -1 -18 7 -4 54 -48 103 -97 53 -52 93 -84 97 -78 4 7 17
-1 32 -20 14 -16 19 -27 13 -23 -7 5 -13 4 -13 -1 0 -5 -12 -14 -26 -20 -14
-7 -23 -16 -19 -21 3 -5 -5 -6 -19 -3 -13 4 -57 37 -96 75 -40 37 -74 67 -75
67 -2 0 -19 15 -37 33 -85 81 -248 208 -259 201 -4 -2 -9 3 -13 11 -3 8 -15
15 -26 15 -11 0 -20 5 -20 10 0 6 -8 10 -18 10 -27 0 -32 9 -19 31 15 24 48
24 115 1z m-3871 -7 c-7 -17 41 -58 59 -51 8 3 11 0 8 -8 -8 -21 14 -30 34
-14 15 12 16 11 3 -5 -13 -16 -12 -20 7 -33 29 -20 28 -22 -13 -66 -22 -23
-41 -35 -52 -31 -10 2 -49 33 -88 68 l-69 63 47 29 c25 15 49 36 52 46 4 9 9
17 12 17 3 0 3 -7 0 -15z m2106 -15 c-7 -27 -13 -25 -11 4 1 14 5 23 9 20 4
-2 5 -13 2 -24z m-2042 3 c13 -16 12 -17 -3 -4 -10 7 -18 15 -18 17 0 8 8 3
21 -13z m3600 4 c-6 -8 -9 -16 -6 -19 3 -2 -8 -4 -25 -4 -16 0 -27 3 -24 8 3
4 12 8 20 8 8 0 14 5 14 10 0 6 7 10 16 10 13 0 14 -3 5 -13z m45 -4 c-2 -9
-8 -19 -15 -21 -10 -3 -10 0 -2 17 14 25 20 27 17 4z m-3211 -25 c5 4 5 1 1
-6 -6 -11 -12 -10 -27 4 -11 10 -19 12 -19 6 0 -7 -5 -12 -10 -12 -7 0 -7 7 0
21 l11 20 18 -20 c10 -11 22 -17 26 -13z m1585 28 c0 -3 -4 -8 -10 -11 -5 -3
-10 -1 -10 4 0 6 5 11 10 11 6 0 10 -2 10 -4z m1654 -12 c3 -8 2 -12 -4 -9 -6
3 -10 10 -10 16 0 14 7 11 14 -7z m236 6 c8 -5 11 -10 5 -10 -5 0 -17 5 -25
10 -8 5 -10 10 -5 10 6 0 17 -5 25 -10z m65 -8 c-3 -3 -11 0 -18 7 -9 10 -8
11 6 5 10 -3 15 -9 12 -12z m-3619 -25 c0 -15 -2 -16 -11 -5 -5 8 -19 12 -30
10 -16 -2 -17 -1 -6 7 23 15 47 9 47 -12z m1574 14 c0 -5 -34 -28 -76 -51 -41
-23 -73 -44 -70 -47 2 -3 15 2 28 11 51 36 45 13 -9 -35 -96 -84 -182 -144
-208 -144 -19 -1 -22 2 -13 12 6 7 17 13 24 13 8 0 14 4 14 9 0 5 11 12 25 15
14 4 25 11 25 17 0 6 -6 6 -18 0 -11 -6 -24 -6 -33 0 -12 7 -12 9 1 9 8 0 40
23 70 50 30 28 79 64 108 80 28 17 52 35 52 41 0 5 4 8 9 5 4 -3 17 1 27 9 22
16 44 19 44 6z m275 -86 c44 -14 87 -28 95 -30 8 -2 16 -4 18 -5 1 -2 5 -3 10
-4 4 -1 12 -4 17 -7 6 -4 20 -5 32 -4 12 1 20 -1 18 -5 -2 -3 17 -12 43 -19
26 -7 54 -15 62 -18 18 -7 28 -10 55 -16 11 -2 27 -6 35 -9 47 -16 90 -27 125
-33 22 -3 47 -10 55 -16 19 -12 -131 -4 -177 10 -24 7 -33 6 -33 -2 0 -9 -2
-9 -8 -1 -4 7 -38 22 -77 34 -87 28 -86 28 -165 57 -36 13 -72 25 -81 27 -9 3
-46 16 -83 31 -36 14 -71 23 -77 19 -7 -4 -9 -3 -5 4 4 6 -8 16 -29 23 -19 7
-35 16 -35 20 0 8 73 -12 205 -56z m-1185 45 c0 -5 -2 -10 -4 -10 -3 0 -8 5
-11 10 -3 6 -1 10 4 10 6 0 11 -4 11 -10z m951 -32 c8 2 11 0 6 -4 -10 -10
-47 -13 -41 -3 2 4 -1 9 -8 11 -7 3 -9 12 -4 23 6 18 8 18 20 -5 7 -14 19 -23
27 -22z m-3 17 c-3 -3 -9 2 -12 12 -6 14 -5 15 5 6 7 -7 10 -15 7 -18z m-883
-5 c3 -5 2 -10 -4 -10 -5 0 -13 5 -16 10 -3 6 -2 10 4 10 5 0 13 -4 16 -10z
m944 1 c10 -7 7 -9 -12 -8 -14 1 -23 5 -20 10 6 9 15 9 32 -2z m2065 -31 c-6
-6 -10 -3 -10 10 0 13 4 16 10 10 7 -7 7 -13 0 -20z m-319 10 c3 -6 -1 -7 -9
-4 -18 7 -21 14 -7 14 6 0 13 -4 16 -10z m-3685 -35 c-6 -8 -8 -20 -4 -26 4
-8 3 -9 -5 -5 -6 4 -20 2 -29 -6 -9 -7 -4 2 11 20 15 19 27 39 28 45 0 8 2 8
6 -1 3 -7 0 -19 -7 -27z m4035 15 c3 -5 1 -10 -4 -10 -6 0 -11 5 -11 10 0 6 2
10 4 10 3 0 8 -4 11 -10z m-3984 -30 c-27 -23 -50 -27 -32 -7 6 8 9 16 6 18
-2 3 8 6 23 7 l27 1 -24 -19z m3219 10 c0 -5 -5 -10 -11 -10 -5 0 -7 5 -4 10
3 6 8 10 11 10 2 0 4 -4 4 -10z m840 -55 l35 -40 -36 33 c-19 18 -39 29 -43
25 -4 -4 -4 1 0 10 3 10 7 16 8 15 0 -2 17 -21 36 -43z m-876 21 c-6 -16 -32
-25 -51 -19 -24 8 -13 22 20 26 17 2 33 5 34 5 1 1 0 -4 -3 -12z m560 -2 c3
-8 2 -12 -4 -9 -6 3 -10 10 -10 16 0 14 7 11 14 -7z m-1230 -3 c3 -4 -6 -6
-19 -3 -14 2 -25 6 -25 8 0 8 39 4 44 -5z m1529 -34 c4 3 7 4 7 0 0 -18 -20
-13 -41 11 l-24 27 26 -23 c14 -12 29 -19 32 -15z m-979 11 c-3 -4 10 -5 28
-2 l33 6 -23 -17 c-17 -12 -26 -14 -36 -6 -7 6 -15 9 -18 6 -2 -3 -5 1 -5 8 0
8 6 14 13 14 7 0 11 -4 8 -9z m730 -17 c-2 -3 -12 3 -22 13 -16 17 -16 18 5 5
12 -7 20 -15 17 -18z m-782 -28 c-49 -15 -69 -16 -69 0 0 7 15 13 36 14 20 1
37 7 39 12 2 7 8 6 17 -2 11 -10 6 -14 -23 -24z m-1555 21 c-3 -3 -12 -4 -19
-1 -8 3 -5 6 6 6 11 1 17 -2 13 -5z m-57 -29 c0 -8 -4 -15 -10 -15 -5 0 -7 7
-4 15 4 8 8 15 10 15 2 0 4 -7 4 -15z m2701 -2 c13 -16 12 -17 -3 -4 -10 7
-18 15 -18 17 0 8 8 3 21 -13z m-1301 -7 c-6 -5 -54 -14 -88 -15 -13 -1 -20
-5 -17 -11 3 -5 1 -10 -4 -10 -6 0 -11 5 -11 11 0 5 -6 7 -12 3 -10 -6 -10 -5
-1 7 9 11 33 16 75 18 34 1 60 0 58 -3z m1350 -11 c7 -8 9 -15 6 -15 -4 0 -14
7 -22 15 -9 8 -11 15 -6 15 5 0 15 -7 22 -15z m-1270 1 c0 -3 -4 -8 -10 -11
-5 -3 -10 -1 -10 4 0 6 5 11 10 11 6 0 10 -2 10 -4z m60 0 c0 -3 -4 -8 -10
-11 -5 -3 -10 -1 -10 4 0 6 5 11 10 11 6 0 10 -2 10 -4z m-1520 -36 c0 -5 -2
-10 -4 -10 -2 0 -20 -7 -40 -15 -41 -18 -45 -14 -14 15 23 21 58 27 58 10z
m1215 1 c3 -5 2 -12 -3 -15 -5 -3 -9 1 -9 9 0 17 3 19 12 6z m1525 -5 c0 -2
-7 -7 -16 -10 -8 -3 -12 -2 -9 4 6 10 25 14 25 6z m-2905 -34 c-3 -3 -11 0
-18 7 -9 10 -8 11 6 5 10 -3 15 -9 12 -12z m2980 -50 c-3 -3 -6 -3 -7 -1 -2 2
-14 18 -28 34 l-25 30 32 -29 c18 -16 31 -32 28 -34z m-161 -63 c-2 -4 0 -10
6 -14 5 -3 10 -2 10 4 0 5 9 9 20 8 18 -1 18 -11 -1 -13 -22 -3 -23 -5 -9 -14
13 -8 12 -10 -2 -10 -10 0 -18 5 -18 11 0 5 -3 8 -8 5 -4 -2 -8 9 -9 26 0 20
2 26 7 17 5 -7 7 -16 4 -20z"/>
<path d="M7576 10072 c-3 -6 1 -13 10 -16 23 -9 28 -2 10 13 -8 7 -17 8 -20 3z"/>
<path d="M2170 10443 c0 -5 9 -18 20 -28 11 -10 20 -14 20 -8 0 5 -9 18 -20
28 -11 10 -20 14 -20 8z"/>
<path d="M2051 2681 c97 -140 135 -195 213 -309 50 -74 98 -144 106 -155 8
-12 41 -60 73 -106 46 -66 53 -81 33 -68 -14 9 -38 25 -53 34 -16 10 -30 20
-33 24 -5 6 -20 13 -143 76 -64 32 -108 52 -132 59 -5 2 -55 19 -110 38 -97
33 -175 51 -175 41 0 -17 105 -152 156 -200 77 -72 176 -142 249 -176 28 -12
53 -27 56 -32 3 -5 10 -8 15 -8 14 1 46 -10 42 -15 -2 -2 -21 1 -42 7 -21 6
-47 13 -57 15 -43 9 -57 13 -119 29 -36 9 -76 19 -90 22 -14 3 -29 6 -35 7 -5
2 -23 6 -40 10 -16 4 -57 15 -90 23 -33 8 -69 16 -80 18 -11 2 -48 10 -81 19
-34 9 -65 16 -68 16 -3 0 -6 -16 -6 -36 0 -78 171 -249 341 -343 70 -38 219
-88 289 -98 97 -13 311 -5 328 11 1 2 40 -5 85 -15 45 -11 93 -22 107 -25 14
-3 43 -10 65 -16 45 -11 40 -10 155 -38 79 -19 111 -27 150 -35 8 -2 15 -4 15
-5 0 -1 7 -3 15 -5 35 -9 59 -14 125 -30 39 -9 79 -19 90 -22 11 -2 38 -9 60
-14 52 -12 70 -17 70 -19 0 -1 9 -3 20 -5 11 -2 31 -6 45 -10 14 -4 34 -8 45
-10 11 -3 40 -9 65 -15 25 -7 52 -13 60 -15 8 -2 62 -15 120 -30 58 -15 114
-29 125 -31 11 -2 86 -20 165 -40 80 -20 159 -38 175 -41 17 -3 38 -9 48 -15
10 -5 21 -7 24 -4 3 2 17 0 32 -6 14 -5 35 -12 46 -14 11 -2 34 -7 50 -11 17
-4 32 -7 35 -8 32 -6 118 -28 130 -32 8 -3 26 -8 39 -10 14 -2 32 -8 40 -13
14 -8 14 -10 1 -10 -8 -1 -22 -3 -30 -5 -8 -1 -31 -5 -50 -9 -19 -3 -46 -8
-60 -11 -14 -3 -34 -8 -45 -10 -11 -3 -31 -7 -45 -10 -28 -7 -59 -13 -92 -19
-13 -2 -45 -10 -73 -16 -27 -6 -61 -14 -75 -16 -14 -3 -32 -7 -40 -10 -8 -3
-28 -8 -45 -10 -16 -2 -40 -6 -52 -9 -13 -3 -32 -7 -44 -10 -11 -2 -30 -7 -41
-11 -11 -3 -30 -7 -41 -9 -34 -5 -78 -15 -122 -27 -22 -5 -51 -12 -65 -14 -14
-3 -32 -7 -40 -10 -8 -3 -28 -8 -45 -10 -36 -5 -70 -12 -70 -14 0 -1 -9 -3
-20 -5 -17 -4 -72 -17 -165 -39 -42 -11 -157 -38 -173 -41 -10 -2 -27 -7 -37
-10 -10 -3 -27 -7 -37 -10 -10 -2 -99 -24 -198 -49 -99 -26 -187 -49 -195 -51
-8 -2 -15 -4 -15 -5 0 -1 -11 -3 -24 -6 -13 -2 -49 -12 -79 -20 -30 -9 -60
-17 -66 -19 -6 -1 -18 -5 -26 -8 -8 -3 -42 -13 -75 -22 -33 -9 -64 -17 -70
-19 -80 -22 -123 -36 -269 -83 -341 -111 -544 -201 -618 -275 -26 -26 -23 -74
5 -92 56 -37 232 -53 362 -32 17 2 53 7 80 11 28 4 59 9 70 11 11 2 40 7 65
10 53 7 76 11 98 18 9 3 33 7 52 10 101 15 116 18 132 22 10 3 29 7 43 10 43
7 66 12 200 39 72 15 141 29 155 32 14 2 54 11 90 19 36 8 80 17 99 20 19 3
44 10 57 14 12 5 24 6 27 3 3 -3 12 -1 19 3 7 4 19 9 28 10 19 3 71 12 90 17
8 2 42 9 75 16 33 7 67 15 75 18 8 3 24 7 35 9 34 4 74 12 93 18 9 3 28 7 42
10 14 3 35 7 46 10 12 2 66 14 120 26 55 12 108 24 119 26 11 3 31 7 45 10 14
3 34 8 45 11 11 4 31 8 45 9 14 1 25 2 25 3 0 3 18 7 60 16 17 3 50 11 75 16
42 10 82 18 105 23 6 1 15 4 20 7 6 4 18 5 28 4 9 -2 17 0 17 4 0 4 8 7 18 7
9 1 29 4 45 8 15 3 38 8 52 11 59 12 73 15 131 29 58 14 81 19 142 31 15 3 43
10 62 15 38 10 84 20 115 25 11 2 20 4 20 5 0 2 32 9 65 15 14 2 25 4 25 5 0
2 33 9 65 15 14 2 26 4 28 6 4 3 54 14 107 24 11 2 20 4 20 5 0 2 33 9 65 15
14 2 25 4 25 5 0 2 198 48 235 54 14 3 52 11 85 18 65 15 66 15 110 5 17 -4
39 -9 50 -12 11 -2 38 -9 60 -15 22 -6 60 -15 85 -20 25 -6 56 -13 70 -16 14
-3 30 -7 35 -8 6 -1 16 -5 23 -9 6 -5 12 -6 12 -3 0 2 15 0 33 -5 17 -6 43
-12 57 -15 48 -9 65 -13 98 -23 18 -5 35 -10 37 -10 3 -1 6 -1 8 -2 4 -1 31
-7 57 -12 14 -3 63 -15 110 -27 47 -12 96 -24 110 -26 14 -3 43 -10 65 -16 22
-6 43 -11 47 -10 3 1 28 -5 55 -13 26 -8 59 -16 73 -18 14 -3 45 -10 70 -17
25 -7 54 -14 65 -16 11 -1 58 -12 105 -24 47 -12 105 -25 129 -31 23 -5 62
-14 85 -20 22 -6 52 -13 66 -15 14 -3 34 -8 45 -11 11 -3 29 -7 40 -9 11 -2
67 -15 125 -29 58 -14 119 -28 135 -31 17 -3 66 -15 110 -26 44 -11 89 -21
100 -22 12 -1 27 -6 34 -10 7 -4 15 -6 18 -3 3 3 17 1 32 -4 14 -6 37 -12 51
-14 14 -3 43 -9 65 -14 65 -16 218 -50 245 -55 14 -3 36 -8 50 -11 14 -3 36
-8 50 -10 34 -6 68 -13 88 -19 9 -3 28 -7 42 -10 14 -3 35 -7 47 -10 11 -2 42
-8 67 -11 26 -4 49 -11 52 -16 3 -5 9 -7 14 -4 5 3 28 1 52 -4 24 -5 59 -12
78 -15 19 -3 46 -8 60 -11 30 -6 128 -22 190 -30 147 -20 316 -7 357 26 7 7
13 32 13 59 0 44 -4 52 -37 80 -40 32 -249 138 -308 156 -29 8 -202 76 -217
84 -10 6 -26 10 -36 10 -10 0 -22 3 -26 7 -3 4 -14 8 -22 9 -9 1 -23 6 -32 10
-9 4 -19 8 -22 9 -14 3 -87 27 -100 33 -8 3 -19 7 -25 7 -5 1 -18 5 -27 9 -9
4 -25 9 -35 11 -10 2 -19 4 -20 5 -2 2 -6 3 -10 4 -5 2 -28 9 -53 16 -25 7
-47 14 -50 15 -3 1 -25 7 -50 15 -25 7 -49 15 -55 16 -56 15 -133 37 -145 42
-8 3 -19 6 -25 7 -5 2 -30 8 -55 15 -25 7 -52 14 -60 16 -8 2 -82 22 -165 44
-82 22 -159 42 -170 44 -11 3 -22 6 -25 7 -3 1 -9 3 -15 4 -5 1 -17 5 -25 8
-8 3 -55 15 -105 27 -49 11 -94 22 -100 24 -5 2 -23 6 -40 10 -16 4 -48 12
-70 17 -22 5 -49 11 -60 13 -11 2 -65 16 -120 30 -101 25 -143 35 -180 41 -11
2 -20 4 -20 5 0 2 -44 13 -115 27 -47 9 -50 10 -52 13 -2 1 -12 3 -23 5 -96
19 -101 21 -75 30 14 4 34 9 45 11 11 1 20 3 20 4 0 1 11 4 25 7 39 7 55 11
55 13 0 1 9 3 20 5 29 5 70 14 139 31 91 22 91 22 91 24 0 1 9 3 20 4 50 7 95
17 165 35 41 11 89 22 105 25 37 7 54 11 135 30 36 8 76 17 90 19 14 3 45 10
70 17 25 7 54 14 65 16 11 2 49 11 85 20 36 9 76 18 90 21 14 2 61 13 105 23
44 11 91 21 105 24 14 2 25 5 25 6 0 1 10 3 23 6 12 2 32 6 45 8 12 3 22 5 22
6 0 2 33 9 65 14 14 2 38 9 54 15 16 7 31 9 33 7 3 -3 16 -1 29 4 14 6 35 12
47 14 12 2 40 9 62 15 22 6 53 8 69 5 218 -39 397 -2 595 124 48 31 62 37 96
42 6 1 1 5 -10 10 -11 5 -14 9 -7 9 14 1 62 41 101 85 14 16 31 34 38 41 43
45 53 79 53 186 0 97 -2 107 -22 126 -27 24 -98 67 -98 59 0 -3 -16 2 -35 10
-19 8 -35 12 -35 9 0 -2 -11 0 -25 5 -85 32 -438 32 -620 0 -33 -6 -69 -13
-80 -14 -11 -2 -38 -11 -61 -19 -175 -64 -240 -148 -251 -322 -6 -95 -6 -98
-26 -101 -7 -1 -32 -5 -57 -9 -24 -4 -47 -8 -50 -10 -5 -3 -56 -12 -110 -20
-8 -1 -33 -6 -55 -11 -51 -10 -43 -9 -95 -19 -25 -5 -47 -9 -50 -10 -3 -1 -27
-5 -55 -10 -57 -10 -64 -12 -67 -15 -2 -1 -12 -3 -23 -4 -27 -4 -84 -14 -115
-21 -14 -3 -41 -8 -60 -10 -19 -3 -55 -9 -80 -15 -25 -6 -57 -13 -72 -15 -15
-2 -35 -6 -45 -9 -10 -3 -34 -7 -53 -10 -37 -6 -69 -12 -110 -21 -14 -4 -34
-7 -45 -9 -11 -2 -33 -6 -50 -9 -16 -4 -43 -9 -60 -12 -32 -5 -63 -11 -105
-20 -14 -3 -41 -8 -60 -11 -19 -3 -37 -7 -40 -9 -3 -2 -24 -6 -46 -9 -22 -4
-51 -9 -64 -12 -55 -11 -117 -23 -155 -29 -16 -3 -40 -7 -52 -10 -13 -3 -33
-7 -45 -10 -13 -3 -38 -8 -57 -11 -18 -3 -43 -8 -55 -10 -11 -2 -32 -6 -46 -9
-14 -2 -70 -14 -125 -26 -55 -11 -111 -22 -125 -24 -49 -7 -95 -16 -130 -25
-19 -5 -51 -12 -70 -15 -19 -3 -36 -7 -38 -9 -2 -3 -53 6 -112 19 -14 3 -37 7
-52 10 -15 2 -35 6 -45 9 -10 3 -29 7 -43 10 -42 9 -184 39 -235 51 -11 3 -37
7 -59 10 -21 3 -41 7 -45 10 -4 2 -21 6 -37 9 -16 3 -74 15 -129 27 -55 11
-109 23 -120 25 -11 2 -45 9 -75 15 -30 6 -62 13 -70 14 -8 2 -15 4 -15 5 0 1
-13 3 -28 5 -16 2 -59 11 -95 19 -37 8 -80 17 -97 20 -16 3 -41 8 -55 11 -14
3 -35 8 -47 11 -13 2 -33 6 -45 8 -13 3 -34 8 -48 11 -14 3 -38 8 -55 10 -16
3 -37 8 -45 10 -8 2 -26 6 -40 9 -14 2 -45 9 -70 14 -25 6 -61 13 -80 16 -19
3 -45 8 -57 11 -37 8 -64 14 -146 31 -126 25 -131 26 -144 27 -7 0 -13 3 -13
6 0 3 -10 6 -22 7 -23 0 -59 7 -108 19 -14 3 -36 8 -50 10 -31 5 -121 23 -230
47 -30 6 -62 12 -70 14 -8 1 -26 5 -40 8 -44 10 -156 33 -205 42 -71 13 -102
25 -102 38 0 17 -22 104 -33 131 -50 119 -113 233 -163 293 -81 97 -180 187
-272 247 -26 17 -141 76 -155 80 -3 1 -18 7 -33 13 -15 7 -40 15 -55 18 -15 4
-33 11 -39 17 -7 5 -13 7 -13 4 0 -3 -17 -1 -37 4 -21 6 -51 12 -67 15 -28 6
-29 5 -15 -15z m344 -311 c3 -6 -1 -7 -9 -4 -18 7 -21 14 -7 14 6 0 13 -4 16
-10z m30 -40 c10 -11 16 -20 13 -20 -3 0 -13 9 -23 20 -10 11 -16 20 -13 20 3
0 13 -9 23 -20z m156 -142 c22 -21 39 -46 38 -55 0 -14 -2 -15 -6 -3 -3 8 -41
49 -84 91 -44 42 -79 79 -79 84 0 8 22 -12 131 -117z m-673 96 c34 -16 44 -28
15 -17 -11 4 -14 3 -9 -5 11 -18 2 -14 -30 13 -33 28 -22 33 24 9z m147 -402
c-3 -3 -11 0 -18 7 -9 10 -8 11 6 5 10 -3 15 -9 12 -12z m45 -12 c8 -5 11 -10
5 -10 -5 0 -17 5 -25 10 -8 5 -10 10 -5 10 6 0 17 -5 25 -10z m55 -20 c13 -6
15 -9 5 -9 -8 0 -22 4 -30 9 -18 12 -2 12 25 0z m60 -20 c13 -6 15 -9 5 -9 -8
0 -22 4 -30 9 -18 12 -2 12 25 0z"/>
<path d="M1810 2060 c-11 -8 -9 -9 12 -6 15 2 29 0 32 -5 2 -5 3 -4 2 3 -3 17
-27 21 -46 8z"/>
</g>
</svg>
